<?xml version="1.0" standalone="no"?><!DOCTYPE svg PUBLIC "-//W3C//DTD SVG 1.1//EN" "http://www.w3.org/Graphics/SVG/1.1/DTD/svg11.dtd"><svg t="1710138588165" class="icon" viewBox="0 0 2559 1024" version="1.1" xmlns="http://www.w3.org/2000/svg" p-id="17209" xmlns:xlink="http://www.w3.org/1999/xlink" width="499.8046875" height="200"><path d="M82.488293 748.716655l9.955484-0.341331a212.876685 212.876685 0 0 0-42.950801-98.530844c16.952766 9.671041 31.857548 22.41406 43.861016 37.660172a581.741576 581.741576 0 0 1 10.12615-74.75146c0.170665-0.853327 0.398219-1.706654 0.511996-2.730647l38.229057 75.547899v0.227554l-3.811528 10.069261-8.191941 22.015841-7.793721 21.617621-1.13777 3.185755-4.209747 11.662138a5200.005111 5200.005111 0 0 0-84.308725 254.519051 22.982945 22.982945 0 0 1-15.587443 15.132335l3.413309-10.979476 7.85061-25.884258c22.527837-73.158583 44.998786-142.221195 67.6404-205.93629l-10.06926-0.568885-10.069261 0.170665a122.992889 122.992889 0 0 0-38.911719 8.874603l-9.159045 4.209747a118.896919 118.896919 0 0 1 57.457363-28.671793 97.108632 97.108632 0 0 1-41.357923-25.03093c12.117246 5.461294 25.258484 8.362606 38.513499 8.533272z m2209.889818-10.183038c13.198127 0 24.234492 3.470197 32.767763 10.410592a41.528589 41.528589 0 0 1 14.791004 27.135804h-17.91987a26.225588 26.225588 0 0 0-10.581257-16.270105 33.507314 33.507314 0 0 0-19.398971-5.006186c-11.832803 0-20.650518 3.925305-26.623808 12.117246-5.518182 7.224837-8.191941 17.350986-8.191941 30.26467 0 13.255015 2.673758 23.494941 7.964387 30.606001 5.859513 7.566168 15.018558 11.491473 27.30647 11.491473a32.14199 32.14199 0 0 0 19.740301-5.802625 34.815749 34.815749 0 0 0 11.377696-19.285194h17.919871a49.663641 49.663641 0 0 1-17.635429 30.947332 48.412095 48.412095 0 0 1-31.231774 10.410592c-18.773198 0-32.767763-6.030179-41.926808-17.635429-8.021275-10.126149-11.94658-23.722495-11.946581-40.73215 0-16.725213 4.039082-30.435336 12.401689-40.845927 9.500376-11.94658 23.210499-17.806094 41.187258-17.806094z m-1211.838359 0c13.255015 0 23.665607 2.673758 31.061109 8.191941 7.907498 5.859513 12.515465 15.018558 13.539457 27.30647h-18.261201a24.575823 24.575823 0 0 0-8.647049-15.018559c-4.09597-3.128866-10.410591-4.551078-18.602532-4.551078a34.701972 34.701972 0 0 0-16.270105 3.015089c-4.721744 2.332428-6.940394 6.257733-6.940394 11.662138 0 4.721744 2.503093 8.647049 7.907498 11.491473 2.332428 1.251547 8.817714 3.640863 19.228306 6.940394 15.303001 4.721744 25.03093 8.533272 29.468232 11.036365 9.784818 5.859513 14.677227 13.880789 14.677227 24.29138 0 10.069261-3.982193 18.147424-11.832803 23.950049-7.907498 5.688848-19.05764 8.703937-33.450426 8.703938-13.8239 0-24.746488-2.730647-32.426432-8.078164-9.500376-6.599063-14.677227-17.066543-15.473666-31.345552h18.261201c1.308435 8.533272 4.266636 14.620339 9.159045 18.261202 4.437301 3.185755 11.20703 4.892409 20.479852 4.892409 8.248829 0 14.847893-1.422212 19.569637-4.095971 4.721744-2.844424 7.281725-6.485286 7.281725-11.20703 0-5.97329-3.640863-10.695034-10.581257-14.222119a211.966469 211.966469 0 0 0-21.902064-7.395502 183.465342 183.465342 0 0 1-25.884257-9.443488 24.917153 24.917153 0 0 1-12.913685-22.698502 26.737585 26.737585 0 0 1 12.629242-23.494942 50.915188 50.915188 0 0 1 29.92334-8.191941z m1039.636936 2.218651v76.173672c0 12.913685-2.673758 22.357172-8.021276 28.671793-6.030179 6.599063-15.473666 9.955484-28.558016 9.955484-11.377696 0-20.024744-3.185755-25.827369-9.500376-6.030179-6.257733-8.98838-14.96167-8.988379-25.998035v-3.640862h18.431867v3.470197c0 12.913685 5.518182 19.398971 16.725212 19.398971 6.143956 0 10.695034-1.87732 13.539458-5.518183 2.844424-3.640863 4.266636-9.443487 4.266636-17.521651v-75.49101h18.431867z m-134.93947-2.218651c17.18032 0 30.719778 5.518182 40.675262 16.725213 9.443487 10.581257 14.22212 24.575823 14.222119 41.926808s-4.778632 31.231774-14.222119 41.813031c-9.955484 11.036365-23.494941 16.497659-40.675262 16.497659-17.350986 0-30.890444-5.688848-40.675262-16.668324-9.500376-10.751922-14.051454-24.632711-14.051454-41.642366 0-17.18032 4.551078-31.061109 14.051454-41.756143 9.784818-11.377696 23.324276-16.895878 40.675262-16.895878z m-1391.719727 2.218651v46.989883h57.059144v-46.989883h18.488755V853.334566h-18.488755v-49.834307h-57.059144V853.334566h-18.431867v-112.639187h18.431867z m1848.932425 0v15.758108h-36.920623V853.334566h-18.431866v-96.82419h-36.863734v-15.758108h92.216223z m-219.020641 0v15.758108h-62.747991v31.231775h58.993352v15.758108H2160.624395v34.076199h65.42175V853.334566h-83.853616v-112.639187h81.179858z m-859.072906 0l30.890443 91.761115h0.455108l30.947332-91.761115h19.967856L1406.624508 853.334566h-22.243395l-40.049489-112.639187h20.024745z m175.330289 0v15.758108h-62.747991v31.231775h58.936463v15.758108h-58.936463v34.076199h65.421749V853.334566h-83.910505v-112.639187h81.236747z m70.143493 0c11.491473 0 20.650518 2.503093 27.30647 7.736833 6.883506 5.688848 10.524368 13.880789 10.524368 24.575822a26.851362 26.851362 0 0 1-4.721744 15.587443 24.462046 24.462046 0 0 1-14.335896 9.955484c9.784818 2.503093 15.303001 8.98838 16.497659 20.024744l1.934208 18.147425a27.363358 27.363358 0 0 0 6.826617 16.497658h-20.081633a28.273574 28.273574 0 0 1-4.892409-14.620338l-1.422212-13.880789c-0.568885-6.143956-2.503093-10.581257-5.688847-13.255015-3.299532-2.844424-8.191941-4.09597-14.449674-4.095971h-29.183789V853.334566h-18.431867v-112.639187z m-678.110658 0c27.135804 0 40.845927 11.491473 40.845927 34.531306 0 23.153611-13.710123 34.815749-41.187258 34.815749h-27.875354V853.334566h-18.431867v-112.639187z m-60.074233 0v15.758108h-36.920622V853.334566h-18.431867v-96.82419h-36.863734v-15.758108h92.216223z m-96.937966 0v15.758108h-36.920622V853.334566h-18.431867v-96.82419h-36.920623v-15.758108h92.273112z m449.987861 0v15.758108h-62.80488v31.231775h58.993352v15.758108h-58.993352v34.076199h65.42175V853.334566H1143.458408v-112.639187h81.179859z m650.804189 0c11.491473 0 20.650518 2.503093 27.306469 7.736833 6.883506 5.688848 10.524368 13.880789 10.524369 24.575822a26.851362 26.851362 0 0 1-4.721744 15.587443 24.462046 24.462046 0 0 1-14.335897 9.955484c9.72793 2.503093 15.246112 8.98838 16.497659 20.024744l1.934208 18.147425a27.363358 27.363358 0 0 0 6.826618 16.497658h-20.081633a28.273574 28.273574 0 0 1-4.892409-14.620338l-1.422212-13.880789c-0.568885-6.143956-2.503093-10.581257-5.688848-13.255015-3.299532-2.844424-8.191941-4.09597-14.449673-4.095971h-29.18379V853.334566h-18.431867v-112.639187z m-106.722785 0c27.078916 0 40.789039 11.491473 40.789039 34.531306 0 23.153611-13.653235 34.815749-41.13037 34.815749h-27.875354V853.334566h-18.488756v-112.639187z m-473.937911 0c11.491473 0 20.650518 2.503093 27.249581 7.736833 6.940394 5.688848 10.581257 13.880789 10.581257 24.575822a26.851362 26.851362 0 0 1-4.721743 15.587443 24.462046 24.462046 0 0 1-14.392785 9.955484c9.784818 2.503093 15.359889 8.98838 16.554547 20.024744l1.934208 18.147425a27.363358 27.363358 0 0 0 6.769729 16.497658h-20.024744a28.273574 28.273574 0 0 1-4.892409-14.620338l-1.422212-13.880789c-0.625773-6.143956-2.503093-10.581257-5.688848-13.255015-3.299532-2.844424-8.191941-4.09597-14.506562-4.095971h-29.126901V853.334566h-18.488755v-112.639187z m690.39857 14.051454a32.995317 32.995317 0 0 0-27.135804 11.775915c-6.143956 7.566168-9.102156 17.635428-9.102157 30.606001 0 12.799908 2.958201 22.869168 9.102157 30.435336 6.257733 7.736833 15.473666 11.662138 27.135804 11.662138 11.662138 0 20.650518-3.75464 26.965138-11.20703 6.143956-7.395502 9.272822-17.635428 9.272822-30.890444 0-13.255015-3.128866-23.665607-9.272822-31.231774-6.314621-7.566168-15.359889-11.150142-26.965138-11.150142zM210.601146 693.1935l9.557264-0.73955c28.444239-3.299532 55.295601-16.782101 75.092791-38.627277-3.982193 7.907498-7.85061 15.018558-11.94658 21.446957a148.478928 148.478928 0 0 1-64.625311 57.002255l-10.183038 4.209747 7.224837 0.853327a53.020062 53.020062 0 0 0 43.974793-19.683413 106.210788 106.210788 0 0 1-6.030178 11.434584c-21.333179 35.043302-60.017344 50.289415-105.926347 52.052957l-10.695033 0.170666-10.979477-0.284443c10.239926 9.32971 16.952766 21.845176 19.171417 35.384634l0.739551 6.826617a76.913222 76.913222 0 0 0-28.78557-33.848644c5.859513-17.066543 8.874603-25.941146 11.775915-34.189976l1.422212-4.152859 2.21865-6.143955 0.170666-0.568885 7.566167-21.446956 7.623056-20.991849 2.844424-7.793721 30.833555-3.35642c9.671041 1.991097 19.342083 2.844424 28.956236 2.446204z m719.696135 63.316876h-26.794473v37.830838h26.794473c8.191941 0 14.22212-1.535989 17.976759-4.380413 3.75464-3.015089 5.688848-7.907498 5.688848-14.677227 0-6.826617-2.047985-11.491473-5.859513-14.335896-3.75464-3.015089-9.784818-4.437301-17.806094-4.437302z m837.057066 0h-26.851362v37.830838h26.851362c8.191941 0 14.22212-1.535989 17.976759-4.380413 3.75464-3.015089 5.688848-7.907498 5.688848-14.677227 0-6.826617-2.104874-11.491473-5.859513-14.335896-3.811528-3.015089-9.784818-4.437301-17.806094-4.437302z m-475.018792 0h-29.183789v35.15708h29.126901a26.1687 26.1687 0 0 0 16.554547-4.551079 17.009655 17.009655 0 0 0 5.23374-13.255015c0-6.143956-1.706654-10.581257-5.23374-13.255015-3.413309-2.844424-8.98838-4.09597-16.497659-4.095971z m580.660696 0h-29.18379v35.15708h29.18379a26.1687 26.1687 0 0 0 16.497658-4.551079 17.009655 17.009655 0 0 0 5.23374-13.255015c0-6.143956-1.706654-10.581257-5.176851-13.255015-3.470197-2.844424-8.98838-4.09597-16.554547-4.095971z m-265.669193 0h-29.183789v35.15708h29.183789a26.1687 26.1687 0 0 0 16.497659-4.551079 17.009655 17.009655 0 0 0 5.23374-13.255015c0-6.143956-1.706654-10.581257-5.176852-13.255015-3.470197-2.844424-8.98838-4.09597-16.554547-4.095971zM470.97971 0.007396l5.57507 0.73955c21.902064 4.607967 37.773949 30.378447 37.77395 30.378447l0.967104 1.365323c3.811528 5.916402 17.806094 31.40244 11.662138 79.416316l-1.649766 10.638145-1.87732 9.159045-2.389316 9.841707a245.18934 245.18934 0 0 1-8.533271 25.599815c-6.37151 16.156328-13.539458 31.914436-21.503845 47.331214a608.308496 608.308496 0 0 1-38.11528 64.170203c-11.377696 16.099439-26.510031 29.013124-44.088571 37.717061l-8.988379 3.982193h-0.568885l-0.455108 0.284443 4.323524-0.682662h0.625774l11.036364-2.389316c10.922588-2.787535 21.503845-6.826617 31.459329-12.117246a36.579291 36.579291 0 0 0 3.982193-2.730647c-0.568885 3.413309-1.308435 6.826617-2.275539 10.126149a212.194023 212.194023 0 0 1-8.305718 23.893161 375.350178 375.350178 0 0 1-11.662138 25.827369l-1.592877 3.242643-1.706655 3.242643-2.673758 4.49419a122.196451 122.196451 0 0 1-14.108343 18.204313 103.366365 103.366365 0 0 1-13.027461 11.662138c-6.257733 4.664855-12.970573 8.817714-19.910967 12.3448l-10.751923 4.835521 0.39822-0.113777 9.102156-1.592878-3.583974 0.682662-3.697751 0.568885-0.227554 0.113777a122.310228 122.310228 0 0 0 48.525872-19.342083 134.256808 134.256808 0 0 1-71.679482 69.972828l2.901312-0.511996-2.730647 0.398219 5.802625-0.967104 5.688848-1.023993-2.787536 0.568885-0.73955 0.170666 3.413309-0.682662c10.012372-2.047985 19.740302-5.404405 28.842458-10.126149a779.941034 779.941034 0 0 1-20.593629 56.205816 484.120948 484.120948 0 0 1-25.770481 53.702723 292.179223 292.179223 0 0 1-40.049488 55.750709c-31.288663 33.734867-72.305256 56.888478-117.417819 66.047523l0.910216 0.227554 0.967104 0.113777-30.833555 3.35642c0.227554-0.398219 0.341331-0.796439 0.455108-1.194658 6.542175-17.862982 12.970573-35.213968 19.342082-52.052958l0.910216-2.503093a4686.188378 4686.188378 0 0 1 40.163265-102.171706c7.338614-17.862982 14.506562-35.157079 21.617622-51.882292 7.395502-17.464763 14.791004-34.246864 21.958952-50.46008l8.703938-19.512748 8.59016-18.886975 5.688848-12.287911 5.57507-11.94658 5.518183-11.60525 10.126149-20.821183 3.299532-6.769729 0.113777-0.568885 0.113777-0.568884c8.817714-17.18032 16.952766-33.450425 24.860264-48.753426a2202.721869 2202.721869 0 0 1 45.22634-82.60207l8.874603-15.189224 1.592877-2.673758c9.102156-15.246112 18.488755-30.321559 28.159797-45.169452h0.170665c13.08435-20.93496 27.363358-41.13037 42.723247-60.415563l15.758109-19.000752-16.611436 18.773198c-10.808811 12.686131-21.276291 25.770481-31.288663 39.139273l-14.56345 20.366075-29.240678-55.181824A376.03284 376.03284 0 0 1 453.002951 4.842916 32.483321 32.483321 0 0 1 471.036598 0.007396zM378.365267 80.22015l29.297567 55.181823c-6.428398 9.272822-12.913685 18.773198-19.342083 28.614905l-9.500376 14.904781-1.706654 2.787535c-9.671041 15.359889-19.228306 31.288663-28.671793 47.672545-9.102156 15.871885-18.147424 32.085102-27.022027 48.696537l-12.458577 23.665607-12.231023 24.063826v-0.056888l-0.853327 1.592877a2640.990704 2640.990704 0 0 0-24.006938 48.924091A2971.000765 2971.000765 0 0 0 225.278373 479.00838a4454.36783 4454.36783 0 0 0-42.438805 101.830376c-6.997283 17.521651-13.880789 34.986414-20.479852 52.166735l-4.494189 11.662138-7.85061 20.707406-7.679945 20.366075-38.285946-75.604788c3.982193-19.79719 8.931491-39.651269 14.620339-59.619125 2.389316-8.533272 4.892409-17.009655 7.566168-25.429149 3.242643-9.898595 6.826617-20.252298 10.695034-31.004221A1126.96075 1126.96075 0 0 1 171.803204 410.173322l8.078164-16.895878 3.982193-8.248829a1592.536054 1592.536054 0 0 1 46.534775-87.039372l13.08435-22.470948 13.255015-21.958953 1.87732-3.071978 0.910216-1.422212a1631.333996 1631.333996 0 0 1 85.901602-126.804417c9.045268-12.060357 17.806094-23.324276 26.225588-33.848645l6.71284-8.19194z m1292.221779 220.670406l10.126149 0.682662c46.932994 4.892409 88.746026 33.507314 110.079205 76.628779l-27.932243 16.952767a111.103198 111.103198 0 0 0-104.561022-62.691103c-84.650055 0-130.900388 75.718564-130.900388 146.829162 0 78.164769 57.229809 148.877147 132.379488 148.877147a120.774239 120.774239 0 0 0 109.055212-65.649304l28.899347 14.847893a154.452218 154.452218 0 0 1-129.023068 82.033185l-10.865699 0.113777c-97.108632 0-165.317917-92.557554-165.317917-182.156906a170.665434 170.665434 0 0 1 167.82101-176.411171l10.239926-0.056888z m210.089149 1.934208v157.35353h209.634042V302.881653h34.815748v353.56189h-34.872637V491.068738h-209.634041v165.317917h-34.246864V302.767876h34.303752z m-1129.350066 0l147.853155 353.618779h-37.318842l-45.795225-110.534312h-158.83263l-45.340117 110.534312h-36.806846l147.910043-353.618779h28.330462z m593.745045 0l147.910043 353.618779h-37.261953l-45.852113-110.534312h-158.775742l-45.510783 110.534312h-36.749956l147.910042-353.618779h28.330462z m1092.998329 0.113777v30.890444h-198.711454v127.43019h173.225416v29.354455h-173.225416v134.93947h203.091867v30.833555h-237.395619V302.881653h233.015206z m-1354.23022-0.113777a110.136093 110.136093 0 0 1 104.561023 110.989421 106.609008 106.609008 0 0 1-92.159334 111.160086l-9.386599 0.853327h-115.028503v130.44528h-34.474418V302.767876h146.487831z m247.351103 40.959704l-72.703475 174.704516h143.358965L1331.190386 343.72758z m-593.801934 0l-72.646586 174.704516h143.358964l-70.712378-174.704516z m344.459735-9.955483h-110.022317v161.278835h112.980518a74.353241 74.353241 0 0 0 68.721281-81.179858 76.742557 76.742557 0 0 0-71.679482-80.098977z m1452.761063-33.336649a27.761577 27.761577 0 1 1-39.25305 0c10.808811-10.808811 28.444239-10.808811 39.25305 0z m-19.569636-4.721743a24.348269 24.348269 0 0 0-17.237209 41.585477 23.096722 23.096722 0 0 0 17.18032 7.11106 23.438053 23.438053 0 0 0 17.294097-7.11106 24.348269 24.348269 0 1 0-17.237208-41.585477z m0.568884 9.215933c3.413309-0.341331 6.883506 0.511996 9.784819 2.275539a8.817714 8.817714 0 0 1 2.9582 7.452391 8.703937 8.703937 0 0 1-6.485286 9.386599l7.964387 10.808811h-6.485287l-7.167948-10.126149h-6.599063v10.126149h-5.176852V304.929638h11.263919z" fill="#172634" p-id="17210"></path></svg>