<?xml version="1.0" standalone="no"?><!DOCTYPE svg PUBLIC "-//W3C//DTD SVG 1.1//EN" "http://www.w3.org/Graphics/SVG/1.1/DTD/svg11.dtd"><svg t="1709798733192" class="icon" viewBox="0 0 1024 1024" version="1.1" xmlns="http://www.w3.org/2000/svg" p-id="9821" data-darkreader-inline-fill="" xmlns:xlink="http://www.w3.org/1999/xlink" width="200" height="200"><path d="M406.946665 1010.183092a129.813724 129.813724 0 0 1-13.79653 0 140.899857 140.899857 0 0 1-110.983601-41.797166 165.436077 165.436077 0 0 1-50.947301-87.507085 183.002707 183.002707 0 0 1-3.58669-38.719949 134.500876 134.500876 0 0 1 39.331316-94.39516c38.006687-40.329884 77.806719-79.86499 116.159847-117.892056l11.473333-11.473332c16.832988-16.588441 33.176883-33.176883 50.947301-49.765324s39.290559-39.800032 59.09887-59.098869l40.0242-40.289126c22.416813-22.722496 45.159688-45.424614 68.371278-67.617259a200.100621 200.100621 0 0 0 63.032001-111.758 25.514409 25.514409 0 0 1 18.341029-22.722496 27.837605 27.837605 0 0 1 29.101098 8.68142l21.173699 22.416812c11.228785 11.738258 22.702117 22.702117 34.440376 33.930903 16.078968 15.569495 32.606273 31.648464 48.481452 48.909409a331.340869 331.340869 0 0 1 48.481452 65.212546 145.872313 145.872313 0 0 1 14.550549 84.715173 169.899061 169.899061 0 0 1-54.350581 108.191689c-29.590193 28.530489-58.691291 57.631587-87.833148 86.671549-22.967043 22.967043-45.934087 45.934087-69.410603 68.656584L643.97389 829.422067c-17.342461 17.342461-34.949849 34.644165-52.822163 50.947301s-38.190097 37.37494-57.346282 56.2662c-10.18946 10.454386-20.664225 20.908772-31.383538 31.118611a132.1573 132.1573 0 0 1-95.475242 42.428913z m-13.287057-46.708486h2.567744A84.918962 84.918962 0 0 0 468.939341 935.392453l31.13899-30.874064c19.380353-19.135806 38.51616-38.271613 58.16144-56.897946s34.970228-33.930903 50.947301-50.947302l35.724248-35.214774c23.231969-22.416813 45.934087-45.424614 68.90113-68.126732 29.345646-29.345646 58.426365-58.691291 88.54641-87.262538a122.028976 122.028976 0 0 0 41.063525-79.110969 100.264289 100.264289 0 0 0-8.925967-58.670913 298.775354 298.775354 0 0 0-42.10285-56.408852c-14.53017-16.058589-29.855119-30.874065-46.178634-46.423181-11.738258-11.228785-23.211591-22.416813-34.440376-33.951281a255.510906 255.510906 0 0 1-68.126731 102.078013c-22.967043 21.927719-45.159688 44.385289-67.617259 66.842859-13.266677 13.531603-25.514409 27.042828-40.064957 40.309505-19.910205 19.400732-39.290559 39.046012-58.935839 58.956217l-50.947301 50.947302-11.493711 11.228785c-38.271613 38.006687-76.543226 76.543226-115.079765 116.85273a89.259672 89.259672 0 0 0-25.514408 63.032001 132.666773 132.666773 0 0 0 2.547365 29.08072 121.641777 121.641777 0 0 0 35.479701 63.786021 96.697978 96.697978 0 0 0 78.581117 28.836173z" fill="#5BC7A5" p-id="9822" data-darkreader-inline-fill="" style="--darkreader-inline-fill: #38a38a;"></path><path d="M494.718675 486.587486a51.110333 51.110333 0 0 1-33.951281-16.303136l-50.947302-50.947302c-45.913708-45.934087-91.847795-91.705142-137.272409-137.802261a151.068938 151.068938 0 0 1-43.672026-112.084063A154.349944 154.349944 0 0 1 333.195351 22.416813a163.805763 163.805763 0 0 1 136.538768 13.511224 174.321286 174.321286 0 0 1 38.719949 30.874065L605.25394 163.561216a163.031364 163.031364 0 0 1 44.833626 71.448496 151.089317 151.089317 0 0 1-8.68142 104.360452 212.857825 212.857825 0 0 1-47.462506 67.861805q-21.418246 20.94953-42.10285 42.10285L529.851934 471.017991a51.089954 51.089954 0 0 1-35.133259 15.569495z m-107.682216-427.957332a118.462665 118.462665 0 0 0-39.290559 6.969591 108.904951 108.904951 0 0 0-73.486387 102.057634v1.283872a105.970387 105.970387 0 0 0 30.364591 79.68158q68.106352 68.90113 137.007483 137.272409l50.947302 50.947301 2.567744 2.302818 2.791912-2.547365L519.662474 414.833307c14.020697-14.265244 28.306321-28.3267 42.612323-42.367776a163.663111 163.663111 0 0 0 37.252667-53.331635 104.768031 104.768031 0 0 0 6.888075-72.711989 122.110492 122.110492 0 0 0-33.42143-50.947301l-96.962904-96.188505a140.370005 140.370005 0 0 0-29.080719-23.252348 120.663589 120.663589 0 0 0-59.893648-17.342462z" fill="#18AACF" p-id="9823" data-darkreader-inline-fill="" style="--darkreader-inline-fill: #17a3c7;"></path><path d="M186.487502 790.702117a55.756727 55.756727 0 0 1-16.853367-2.812291 47.931221 47.931221 0 0 1-33.665977-40.309504 123.435122 123.435122 0 0 1 0-17.362841V292.661678A66.313007 66.313007 0 0 1 140.288489 262.888075a49.704187 49.704187 0 0 1 81.148862-13.001751l225.818818 225.737303a47.707053 47.707053 0 0 1 7.193759 67.087406 48.440694 48.440694 0 0 1-7.153001 7.153001L228.875657 768.285305l-7.397548 7.397548A46.993791 46.993791 0 0 1 186.487502 790.702117z m-1.528419-510.28817c-1.283872 0-2.037892 0-2.812291 2.302818a32.137558 32.137558 0 0 0 0 10.454386v437.087088a79.47779 79.47779 0 0 0 0 11.228785l1.528419 2.547365h4.850183l8.68142-8.661041 217.891419-217.361566a38.169718 38.169718 0 0 0 3.831237-4.850184 48.501831 48.501831 0 0 0-4.075784-4.585257L189.034867 282.716765a6.582391 6.582391 0 0 0-4.075784-3.056838z" fill="#5467AA" p-id="9824" data-darkreader-inline-fill="" style="--darkreader-inline-fill: #5062a3;"></path></svg>