<?xml version="1.0" standalone="no"?><!DOCTYPE svg PUBLIC "-//W3C//DTD SVG 1.1//EN" "http://www.w3.org/Graphics/SVG/1.1/DTD/svg11.dtd"><svg t="1710138776269" class="icon" viewBox="0 0 1024 1024" version="1.1" xmlns="http://www.w3.org/2000/svg" p-id="22834" xmlns:xlink="http://www.w3.org/1999/xlink" width="200" height="200"><path d="M505.69729525 410.88081535C486.01885042 412.84165682 468.72142729 421.035173 455.76586762 434.55097314c-6.65285508 6.93297524-10.43447796 12.39531943-14.49622095 20.93898577-14.07604057 29.41262223-8.61369655 64.14752846 13.86595043 87.81768638 6.7228851 7.0730353 12.74546958 11.48492863 21.84937641 15.966852 22.89982724 11.41489861 47.13022561 11.41489861 70.030053 0 9.10390681-4.48192336 15.12649142-8.8938167 21.84937638-15.966852 22.47964702-23.67015793 27.94199104-58.40506414 13.86595049-87.81768638-4.06174299-8.54366651-7.84336585-14.00601053-14.49622096-20.93898577C557.16938414 422.99601446 541.55268234 414.66243822 526.00601053 411.93126605c-4.97213378-0.84036059-16.31700234-1.40060102-20.30871528-1.0504507z m25.42090912 6.16264453c13.65586035 3.78162285 23.88024803 9.87423749 34.10463572 20.30871545 24.0203081 24.44048848 28.29214135 60.50596567 10.64456806 90.47882822-5.04216381 8.68372657-16.59712249 20.23868526-25.28084905 25.28084905-24.30042841 14.35616087-52.87268993 14.35616087-77.1731182 0-8.68372657-5.04216381-20.23868526-16.59712249-25.28084905-25.28084906C438.46844445 511.37394113 435.177032 492.67591698 438.88862482 474.67819347 441.89991714 459.69176213 447.92250158 448.34689356 458.77715991 437.35217533c10.01429758-10.15435763 20.44877537-16.52709243 32.91412479-19.9585651 8.82378666-2.38102183 11.34486855-2.66114197 22.40961683-2.38102185 8.61369655 0.21009011 11.69501888 0.56024043 17.01730284 2.0308715z" p-id="22835" fill="#1296db"></path><path d="M62.95056475 394.90469766c-23.75046243 7.18037174-54.68129659 42.52989789-59.65232356 66.83269652-11.59906251 64.62335052 35.34952494 118.19997472 100.52521165 112.67661156 95.00184849-7.73270915 115.99062873-137.53174638 28.72148939-175.64295351-28.16915319-12.15139871-41.97756048-12.70373612-69.59437748-3.86635457z m32.03550656 39.76821572l-12.7037349 13.80840849h33.14017894c37.55887092 0 40.3205519 2.76168219 40.3205519 38.11120712 0 25.40747101-12.70373612 43.63457027-36.45419733 53.5766242-25.9598072 11.04672631-33.14018016 9.94205392-21.54111643-3.31401837 9.94205392-11.04672631 9.38971773-11.04672631-20.98878145-11.04672632-35.90186113 0-42.52989789-6.62803555-42.52989668-44.18690647 0-30.37849797 27.616817-60.75699595 55.78596898-60.75699595h17.67476307L94.98607131 434.67291338zM260.68696966 399.87572463c-34.79718875 17.67476307-50.81494202 46.94858745-48.05325983 87.82147675 2.20934478 38.11120711 18.77943547 62.96634194 51.9196144 77.87942282 20.98878023 9.38971773 23.75046243 12.70373612 23.75046244 28.16915198 0 27.06447959 8.28504534 31.48317036 55.23363279 31.48317159 25.40747101 0 44.73924267-2.76168219 48.60559723-6.62803677 4.41869076-4.41869076 6.62803555-29.27382559 6.62803554-75.11774064v-67.93736768L353.47947338 431.91123239c-25.9598072-24.85513482-50.81494202-43.63457027-56.89064137-44.18690647-6.62803555 0-22.64579004 5.52336316-35.90186235 12.15139871z m72.35605967 52.47195182l32.58784396 30.93083416V597.61213076h-22.09345383c-21.54111644 0-22.09345263-0.55233619-22.09345263-18.77943546 0-22.09345263-12.15139871-36.45419732-29.82616178-36.45419733-32.58784396 0-59.09998736-44.73924267-47.50092486-80.0887676 7.18037174-21.54111644 28.72148939-41.42522429 45.29157887-41.42522429 6.07569935 0 25.40747101 13.8084085 43.63457027 31.48317037zM683.22426151 406.50376139c-23.75046243 9.94205392-50.26260582 42.52989789-54.68129658 66.2803591-11.59906251 61.86166833 48.60559724 123.17100169 108.81025699 111.01960177 66.2803591-13.8084085 97.76353068-95.00184849 57.44297877-148.02613528-25.9598072-33.69251635-72.90839586-46.39625125-111.57193918-29.27382559z m74.56540445 35.90186113c7.73270915 5.52336316 17.12242566 19.88410785 21.54111765 31.48317037 6.62803555 19.88410785 6.62803555 24.30279862-2.20934599 42.52989787-11.59906251 24.30279862-32.58784396 37.00653351-61.30933214 37.00653353-28.16915319 0-57.44297878-29.27382559-57.44297877-57.44297757 0-56.33830517 55.23363279-86.16446695 99.42053925-53.5766242zM877.64665049 441.85328633l-42.5298979 42.52989667v69.59437748c0 46.39625125 2.20934478 71.25138606 6.62803555 75.67007805 3.86635457 3.86635457 22.64579004 6.62803555 46.39625247 6.62803555 45.84391506 0 57.44297878-7.18037174 57.44297756-35.34952494 0-14.91308089 2.76168219-18.77943547 19.33177165-24.30279862 35.90186113-13.25607231 63.51867813-62.41400574 55.78596899-101.62988403-7.73270915-42.52989789-43.63457027-76.22241302-80.6411038-76.22241426-17.12242566 0-24.85513482 5.52336316-62.41400452 43.0822341z m78.98409399-7.18037295c22.64579004 11.59906251 33.14018016 29.27382559 33.14018016 56.89064258 0 19.33177166-3.31401838 27.06447959-16.01775328 39.7682157-8.83738154 8.83738154-22.64579004 17.67476307-31.48317036 19.33177166-28.72148939 6.62803555-29.82616178 7.18037174-29.82616178 30.37849797v22.09345263h-44.18690647v-107.1532472l34.24485254-34.79718874c18.77943547-19.33177166 35.34952494-34.79718875 36.45419733-34.79718874 1.10467239 0 8.83738154 3.86635457 17.67476186 8.28504414zM486.0401928 409.26544236c-41.42522429 13.25607231-65.17568671 46.94858745-65.17568672 93.34483991 0 31.48317036 14.36074469 57.44297878 44.18690647 77.32708663 16.01775328 11.04672631 24.30279862 12.70373612 51.36727821 11.04672631 35.34952494-2.76168219 54.12896039-13.8084085 74.56540445-43.08223408 14.91308089-22.09345263 16.57008947-64.07101433 2.76168097-92.2401663-16.57008947-35.34952494-70.14671367-57.99531498-107.70558338-46.39625247z m59.65232355 38.66354331c34.79718875 20.98878023 38.11120711 67.9373689 7.18037175 97.76353068-13.25607231 12.70373612-21.54111644 16.01775328-40.8728881 16.01775328-61.30933214 0-85.61213076-82.29811359-33.69251635-113.78128396 9.38971773-5.52336316 24.85513482-10.49439012 33.69251635-10.49439012 9.38971773 0 24.30279862 4.97102697 33.69251635 10.49439012z" p-id="22836" fill="#1296db"></path></svg>