<?xml version="1.0" standalone="no"?><!DOCTYPE svg PUBLIC "-//W3C//DTD SVG 1.1//EN" "http://www.w3.org/Graphics/SVG/1.1/DTD/svg11.dtd"><svg t="1709948375897" class="icon" viewBox="0 0 1024 1024" version="1.1" xmlns="http://www.w3.org/2000/svg" p-id="34891" data-darkreader-inline-fill="" xmlns:xlink="http://www.w3.org/1999/xlink" width="200" height="200"><path d="M166.2848 667.7376a25.6 25.6 0 1 1-38.1632 0A19.4112 19.4112 0 0 1 128 665.6V415.6032l-27.68-14.4256c-31.36-16.3456-31.36-42.8544 0-59.2l350.1632-182.5152c31.36-16.352 82.208-16.352 113.568 0l359.6288 187.456c31.36 16.3392 31.36 42.8416 0 59.1872l-164.2112 85.5936C710.1312 447.936 620.6272 418.6752 518.4 418.6752c-103.0784 0-193.2224 29.7472-242.304 74.1248L166.4 435.616V665.6c0 0.7232-0.0384 1.4336-0.1152 2.1376zM313.6 530.8608C313.6 492.1664 405.2928 460.8 518.4 460.8c113.1072 0 204.8 31.3664 204.8 70.0608v269.4784C723.2 839.0336 631.5072 870.4 518.4 870.4c-113.1072 0-204.8-31.3664-204.8-70.0608V530.8608zM518.4 844.8c95.4368 0 172.8-20.0576 172.8-44.8s-77.3632-44.8-172.8-44.8-172.8 20.0576-172.8 44.8 77.3632 44.8 172.8 44.8z m-385.696-128h28.992a12.8 12.8 0 0 1 12.672 10.9888l9.1456 64a12.8 12.8 0 0 1-12.672 14.6112h-47.2832a12.8 12.8 0 0 1-12.672-14.6112l9.1456-64a12.8 12.8 0 0 1 12.672-10.9888z" fill="#59AAFF" p-id="34892" data-darkreader-inline-fill="" style="--darkreader-inline-fill: #0058b5;"></path></svg>