<?xml version="1.0" standalone="no"?><!DOCTYPE svg PUBLIC "-//W3C//DTD SVG 1.1//EN" "http://www.w3.org/Graphics/SVG/1.1/DTD/svg11.dtd"><svg t="1709798647911" class="icon" viewBox="0 0 1816 1024" version="1.1" xmlns="http://www.w3.org/2000/svg" p-id="7660" data-darkreader-inline-fill="" xmlns:xlink="http://www.w3.org/1999/xlink" width="354.6875" height="200"><path d="M423.506581 881.069419c8.40671-16.829935 25.220129-33.626839 25.220129-42.033548 0-16.813419-58.846968-92.490323-92.490323-184.980645 0 8.40671-8.390194 16.829935-8.390193 25.220129-8.40671 8.40671-58.846968 42.033548-58.846968 75.676903-8.439742 25.220129 25.203613 109.303742 134.507355 126.117161zM1104.516129 670.885161c-25.220129 50.440258-92.490323 210.184258-117.693935 260.624516 16.813419 8.423226 42.033548 8.423226 67.253677 8.423226 50.456774 0 84.083613-8.423226 92.490323-25.220129 8.40671-16.813419-8.40671-193.370839-33.626839-235.404387-0.016516 8.390194-8.423226-8.423226-8.423226-8.423226z m0 8.40671c0-8.40671 0 0 0 0z m0 0" fill="#1296db" p-id="7661" data-darkreader-inline-fill="" style="--darkreader-inline-fill: #1190d2;"></path><path d="M1550.12129 166.433032c-16.829935-8.40671-25.220129-16.829935-42.033548-8.406709-25.220129 8.40671-33.626839 16.829935-42.033548 33.643354-8.40671 8.40671-8.40671 16.813419-16.829936 16.81342-8.390194 8.40671-16.813419 8.40671-25.220129 8.406709-8.40671 8.390194-8.40671 16.813419-8.40671 25.220129s0 8.40671 8.40671 16.81342c8.40671 0 42.050065-8.40671 58.846968-25.220129l33.643355-50.440258s-8.423226 42.017032-33.643355 67.253677c-25.220129 16.813419-50.440258 16.813419-58.846968 16.81342 0 8.40671 8.40671 25.220129 8.40671 42.050064 0 42.017032-25.220129 75.660387-25.220129 75.660387l-16.81342 33.643355s25.220129-75.693419 25.220129-109.303742v-8.40671h-8.406709c-8.40671 0-16.813419 8.40671-25.220129 25.220129s-25.220129 67.270194-25.220129 67.270194v-25.220129c0-8.40671 0-25.236645 8.406709-42.033548 0-16.813419 16.813419-25.220129 25.220129-25.22013-8.40671 0-16.829935 0-25.220129 8.40671-16.829935 8.40671-42.050065 58.846968-42.050064 58.846968s0-8.40671 8.406709-16.829936c8.40671-16.813419 8.40671-42.017032 25.236646-50.440258 25.220129-16.829935 67.253677 0 67.253677 0v-25.220129c0-8.40671-8.40671-16.813419-8.40671-25.220129v-8.406709c0-8.40671 8.40671-16.829935 16.81342-16.829936-8.40671-16.813419-16.813419-33.626839-33.626839-58.846968-25.220129-25.220129-50.440258-33.643355-67.270194-42.033548-8.40671 0-16.813419 0-16.813419-8.40671l-16.829935-16.796903C1264.243613 65.569032 1188.583226-18.498065 1045.652645 6.705548c-168.134194 16.796903-218.590968 92.473806-226.997677 117.67742h67.253677c16.813419 0 58.846968 8.40671 58.846968 8.406709-42.050065 0-142.930581 8.40671-151.33729 25.220129-16.813419 16.829935-210.184258 210.200774-210.184258 269.047742 0 33.626839 16.813419 50.440258 33.626838 67.253678 8.40671 8.40671 25.220129 25.220129 25.220129 42.033548 8.423226-25.220129 33.626839-58.846968 84.083613-92.490322 0 0-42.033548 42.033548-42.033548 58.846967-33.626839 33.643355-42.033548 67.270194-50.440258 84.067097 0 0-8.40671 8.423226 0 25.236645 0 8.390194 33.626839 50.423742 84.067096 50.423742 25.220129 0 58.846968-16.813419 92.490323-33.626838a280.856774 280.856774 0 0 1 100.880516-42.050065c8.40671-8.40671 25.236645-42.033548 25.236645-84.067097 0-25.220129-8.40671-42.033548-8.406709-58.846968-8.40671-16.813419-8.40671-33.626839-8.40671-58.846967v-109.303742s0 25.220129 8.40671 33.643355c0 0 0 25.220129 8.406709 75.660387 0 16.829935 8.40671 33.643355 8.40671 50.440258 8.40671 16.829935 8.40671 33.643355 8.40671 67.270193 0 42.033548-16.813419 84.067097-25.220129 100.897033 0 8.40671-8.40671 8.40671-16.829936 8.406709-33.626839 0-67.253677 16.813419-100.880516 42.017033-33.626839 16.829935-67.253677 33.643355-100.880516 33.643354-67.270194 0-100.897032-67.270194-100.897032-67.270193v-8.390194c0-16.829935 0-16.829935 8.406709-25.236645v-33.626839c0-16.813419-8.40671-25.203613-25.220129-42.033548-16.813419-16.813419-33.626839-42.033548-33.626838-84.067097 0-50.440258 84.067097-159.744 151.33729-227.014193-25.220129 0-159.744 0-260.641032 109.303742-25.220129 33.610323-50.456774 58.846968-67.253678 84.067096-8.40671 16.813419-42.033548 33.626839-50.456774 33.626839 0 0 8.40671-8.40671 8.40671-25.220129 8.40671-42.050065 8.40671-84.083613 16.813419-84.083613l16.829936-33.643355-25.220129 8.40671s-75.676903 33.626839-92.490323 84.083613c-8.40671 25.220129 0 42.033548 8.40671 50.440258l8.406709 8.390194v8.423225c0 8.40671 0 33.626839 25.236645 42.033549 8.40671 8.40671 16.813419 8.40671 33.626839 8.406709h16.829936c-8.40671 42.033548-8.40671 84.067097 8.390193 134.523871 0 8.423226 0 8.423226 8.40671 16.81342 33.626839 92.490323 92.490323 176.557419 100.897032 184.964129 0 16.829935-16.813419 42.033548-33.626839 67.253677v-8.406709c-8.40671 25.220129-8.40671 42.033548-8.406709 58.863483 0 8.40671 8.40671 25.203613 58.846968 42.033549 16.829935 0 67.270194 16.813419 100.897032 16.813419h25.220129c25.220129-16.813419 33.626839-75.676903 33.626839-75.676903l8.423225-16.813419c8.40671-16.813419 8.40671-33.626839 8.40671-50.456775 0-8.40671 0-16.796903-8.40671-25.203613h50.440258c16.813419 0 67.270194 0 84.067097-8.406709-16.796903 8.40671-33.626839 25.220129-42.017032 33.626838-8.40671 16.829935-25.220129 33.643355-16.813419 58.863484 8.40671 8.390194 8.40671 16.813419 16.813419 33.643355C768.21471 998.779871 793.434839 1024 827.061677 1024h8.40671c16.829935 0 25.220129-8.40671 33.626839-16.829935 0-8.390194 8.40671-16.813419 25.220129-25.22013 33.626839-16.813419 58.846968-33.626839 75.676903-58.846967 33.626839-50.440258 84.067097-159.744 126.117161-269.047742-16.813419-8.40671-33.643355-8.40671-42.050064-16.796903-16.813419-8.423226-33.626839-25.220129-50.440258-50.473291l16.813419 8.423226c16.829935 8.40671 25.236645 16.829935 33.626839 16.829936 16.829935 8.390194 33.643355 8.390194 58.846968 33.626838 33.626839 42.033548 84.083613 67.253677 134.540387 50.440258 50.440258-16.813419 50.440258-84.067097 50.440258-84.067096h25.220129c25.220129 0 42.050065 8.390194 67.270193 8.390193s50.440258 0 75.676904-8.390193c92.490323-33.643355 142.930581-134.540387 134.523871-277.454452-0.016516-84.083613-16.813419-142.930581-50.456775-168.15071zM1365.157161 225.28c8.390194 0 16.813419 0 16.81342 8.40671 8.40671 16.829935 8.40671 33.626839 8.406709 50.440258h-25.220129l8.390194-8.40671c-8.390194-25.220129-8.390194-25.220129-16.81342-25.220129s-16.829935 0-16.829935 16.813419c0 8.40671 0 8.40671 8.40671 16.81342H1323.107097s8.40671 0 16.813419-8.40671c0-8.40671-16.813419-25.220129 0-42.033548-16.813419 0-33.626839 8.40671-33.626839 8.406709s33.626839-16.813419 58.863484-16.813419z m-496.045419-33.626839s-25.220129 8.40671-33.626839 33.626839l-16.813419 50.456774s-8.40671-42.033548 0-58.846968c-25.220129 25.220129-58.846968 117.693935-58.846968 117.693936s25.203613-126.117161 67.253678-142.930581c42.033548-16.813419 100.897032-8.40671 100.897032-8.406709s-25.253161 0-58.863484 8.406709z m193.370839 25.220129c-8.40671 25.220129-8.40671 75.660387-8.40671 75.660387s-8.390194-58.846968 0-84.067096c8.40671-25.220129 58.846968-33.626839 58.846968-33.626839s-42.033548 25.220129-50.440258 42.033548z m50.440258 176.55742s8.40671-25.220129 25.220129-50.456775v-8.390193l8.406709 8.390193c8.40671 0 16.829935-8.390194 16.829936-16.813419 0-8.40671-8.423226-16.813419-16.829936-16.813419-8.40671 0-16.813419 8.40671-16.813419 16.813419s0 8.40671 8.40671 8.40671c-8.40671-8.40671-16.813419-25.220129-16.81342-33.626839l-33.626838 33.626839s33.626839-42.033548 50.440258-58.846968 67.270194-16.813419 67.270193-16.813419-16.813419 0-33.643355 16.813419c16.829935 0 33.643355 25.220129 42.033549 33.643355 16.829935-8.40671 33.643355-8.40671 33.643355-8.40671s-58.846968 16.813419-75.676904 33.626839c-25.220129 16.796903-58.846968 58.846968-58.846967 58.846968z m42.033548 201.794064s0-33.643355 8.423226-50.456774c8.390194-8.40671 50.423742-16.813419 50.423742-16.813419s-33.626839 16.813419-42.033549 25.203613c-8.390194 16.829935-16.813419 42.066581-16.813419 42.06658z m50.456774 100.880516c-58.863484-8.40671-16.813419-126.117161-16.813419-126.117161l92.490323 42.050065c-0.016516 0-16.829935 92.473806-75.676904 84.067096z m0 0" fill="#1296db" p-id="7662" data-darkreader-inline-fill="" style="--darkreader-inline-fill: #1190d2;"></path></svg>