<?xml version="1.0" standalone="no"?><!DOCTYPE svg PUBLIC "-//W3C//DTD SVG 1.1//EN" "http://www.w3.org/Graphics/SVG/1.1/DTD/svg11.dtd"><svg t="1710465672091" class="icon" viewBox="0 0 1024 1024" version="1.1" xmlns="http://www.w3.org/2000/svg" p-id="4280" width="300" height="300" xmlns:xlink="http://www.w3.org/1999/xlink"><path d="M321.197122 870.031655c-29.467626-19.890647-40.517986-41.991367-41.254676-82.509353 0-47.884892 23.574101-81.035971 66.302158-93.559712 49.358273-14.733813 53.778417-17.680576 76.615828-62.618705l21.364028-41.991367-71.458992-200.379856c-39.044604-110.503597-70.722302-208.483453-70.722303-218.060432 0-17.680576 27.994245-33.88777 47.148202-26.520863 5.156835 2.210072 42.728058 72.195683 83.982734 156.178417l73.669064 152.494964 75.879137-152.494964c41.991367-83.982734 80.299281-154.705036 85.456115-156.915108 16.943885-5.893525 46.411511 9.576978 46.411511 25.047482 0 8.103597-31.677698 104.610072-71.458993 215.113669-68.51223 193.01295-70.722302 200.379856-61.145323 226.164029 16.943885 48.621583 38.307914 73.669065 64.828776 78.825899 64.828777 11.78705 93.559712 47.884892 87.666188 109.030216-2.946763 30.941007-7.366906 41.254676-30.204317 61.882015-22.100719 20.627338-31.677698 24.310791-61.145324 24.310791-72.195683 0-106.083453-41.991367-103.13669-127.447482 1.473381-42.728058-0.736691-50.831655-15.470504-65.565468l-16.943885-16.943885-17.680575 19.890648c-15.470504 18.417266-17.680576 27.257554-16.207195 73.669065 1.473381 60.408633-10.313669 86.929496-47.148201 106.083453-29.467626 14.733813-79.56259 13.260432-105.346763-3.683453z m100.189928-38.307914c20.627338-20.627338 22.100719-25.047482 18.417267-58.198561-5.156835-41.254676 3.683453-78.825899 24.310791-105.346763 12.523741-15.470504 13.260432-19.890647 4.420144-26.520863-8.103597-7.366906-11.78705-5.893525-15.470504 5.156834-2.210072 8.103597-13.997122 27.994245-25.784172 44.93813-19.153957 25.784173-25.784173 30.204317-50.094964 30.204317-62.618705 0.736691-89.876259 67.038849-46.411511 111.240287 29.467626 29.467626 60.408633 28.730935 90.612949-1.473381z m264.471943 1.473381c27.257554-27.257554 27.994245-58.198561 2.210072-88.402877-15.470504-18.417266-25.047482-22.83741-47.148202-22.83741-23.574101 0-32.414388-4.420144-50.831654-27.257554-12.523741-15.470504-29.467626-44.201439-36.834533-64.828777-14.733813-37.571223-218.060432-450.854676-212.166906-430.964029 1.473381 5.893525 35.361151 102.4 75.142446 213.640288 71.458993 198.906475 72.932374 204.063309 103.873381 226.900719 42.728058 33.151079 55.251799 63.355396 53.041727 123.764029-1.473381 46.411511-0.736691 50.094964 22.100719 69.985611 31.677698 28.730935 61.882014 27.994245 90.61295 0zM611.453237 375.71223c29.467626-83.246043 55.251799-156.178417 56.72518-162.071942s-30.204317 53.778417-69.985611 132.604316l-72.932374 143.654677 11.050359 23.5741c6.630216 13.260432 13.997122 22.100719 16.207195 19.153957 2.946763-3.683453 29.467626-73.669065 58.935251-156.915108z" fill="#1296db" p-id="4281"></path><path d="M347.717986 816.253237c-5.156835-5.156835-8.840288-17.680576-8.840288-27.994244 0-24.310791 12.523741-36.834532 36.834532-36.834533s36.834532 12.523741 36.834533 36.834533c0 10.313669-3.683453 22.83741-8.840288 27.994244-11.05036 11.05036-44.938129 11.05036-55.988489 0z m47.148201-21.364028c5.893525-10.313669-15.470504-31.677698-25.784173-25.784173-4.420144 2.946763-8.103597 11.78705-8.103597 19.890647 0 15.470504 25.047482 19.890647 33.88777 5.893526zM607.033094 806.676259c-19.153957-28.730935-4.420144-55.251799 29.467625-55.251799 37.571223 0 55.251799 36.834532 29.467626 61.882015-17.680576 17.680576-44.938129 14.733813-58.935251-6.630216z m48.621582-17.680576c0-19.890647-13.997122-26.520863-27.257554-13.260431s-6.630216 27.257554 13.260432 27.257554c8.840288 0 13.997122-5.156835 13.997122-13.997123zM489.899281 589.352518c-5.156835-8.840288 1.473381-22.100719 11.78705-22.100719 3.683453 0 6.630216 6.630216 6.630216 14.733813 0 15.470504-11.05036 19.890647-18.417266 7.366906z" fill="#1296db" p-id="4282"></path><path d="M321.197122 870.031655c-22.83741-15.470504-40.517986-41.254676-40.517985-59.671943 0-5.893525 4.420144-0.736691 9.576978 11.05036 12.523741 27.257554 33.151079 47.148201 60.408633 55.251799 15.470504 4.420144 16.943885 6.630216 6.630216 6.630215-8.103597 0.736691-24.310791-5.893525-36.097842-13.260431zM417.703597 868.558273c18.417266-8.840288 34.62446-24.310791 41.991367-38.307913 5.893525-13.260432 11.78705-19.153957 11.78705-13.997123 0 25.047482-47.148201 67.77554-75.142446 67.77554-5.156835 0 4.420144-6.630216 21.364029-15.470504zM668.178417 875.92518c12.523741-3.683453 31.677698-16.943885 41.991367-29.467626s19.153957-19.153957 19.153957-15.470504c0 13.260432-51.568345 53.041727-68.51223 52.305036-12.523741-0.736691-11.05036-2.210072 7.366906-7.366906zM566.515108 855.297842c-11.78705-11.78705-21.364029-25.784173-21.364029-31.677698 0-5.156835 3.683453-2.946763 8.103597 5.156834s16.943885 22.100719 27.994245 30.941008c10.313669 9.576978 16.207194 16.943885 13.260432 16.943885-3.683453 0-16.207194-9.576978-27.994245-21.364029zM603.34964 850.877698c-11.05036-5.893525-22.100719-16.207194-24.310791-23.574101-4.420144-9.576978-0.736691-8.840288 13.260432 4.420144 9.576978 9.576978 29.467626 19.890647 42.728057 22.83741 19.890647 5.156835 21.364029 5.893525 5.893525 6.630216-10.313669 0-27.257554-4.420144-37.571223-10.313669zM321.197122 831.723741c-10.313669-12.523741-19.153957-30.941007-19.153957-40.517986 0-24.310791 18.417266-58.935252 34.624461-64.828777 11.78705-3.683453 11.78705-3.683453 1.473381 4.420144-34.62446 27.257554-37.571223 72.195683-7.366906 102.4 11.78705 11.78705 19.153957 21.364029 15.470503 21.364029-2.946763 0-14.733813-10.313669-25.047482-22.83741zM421.38705 831.723741c21.364029-20.627338 22.100719-25.047482 18.417267-64.092086-2.210072-26.520863-1.473381-35.361151 2.210071-23.574101 11.78705 36.097842 8.103597 64.092086-11.78705 87.666187-10.313669 12.523741-22.100719 22.83741-25.047482 22.83741-3.683453 0 3.683453-10.313669 16.207194-22.83741zM683.648921 833.933813c11.05036-11.05036 21.364029-19.153957 22.83741-18.417266 4.420144 2.946763-30.204317 39.044604-36.834532 39.044604-2.946763 0 2.946763-9.576978 13.997122-20.627338z" fill="#1296db" p-id="4283"></path><path d="M347.717986 816.253237c-17.680576-17.680576-6.630216-64.828777 16.207194-64.828777 3.683453 0 1.473381 4.420144-5.893525 9.576979-8.840288 6.630216-12.523741 16.943885-10.313669 30.941007 1.473381 18.417266 5.893525 22.83741 24.310791 24.310791 13.997122 2.210072 24.310791-1.473381 30.941007-10.313669 5.156835-7.366906 9.576978-9.576978 9.576979-5.893525 0 22.83741-47.148201 33.88777-64.828777 16.207194zM610.716547 812.569784c-8.103597-11.05036-8.103597-11.78705 0.73669-3.683453 5.893525 4.420144 18.417266 8.103597 29.467626 8.103597 16.207194-1.473381 16.207194-1.473381 2.210072-4.420144-31.677698-5.893525-39.044604-39.044604-11.050359-50.094964 9.576978-3.683453 9.576978-2.210072-1.473382 10.313669-15.470504 16.943885-10.313669 30.204317 11.787051 30.204317 11.78705 0 13.997122-3.683453 11.78705-18.417266-2.210072-9.576978-0.736691-16.207194 2.210072-13.997123 3.683453 2.210072 6.630216 11.05036 7.366906 19.890648 0.736691 14.733813 1.473381 14.733813 6.630216-2.210072s5.893525-16.943885 6.630216-2.210072c1.473381 33.88777-45.67482 53.041727-66.302158 26.520863zM730.797122 786.785612c-1.473381-27.257554-6.630216-40.517986-24.310791-61.145324-12.523741-13.997122-17.680576-23.574101-11.05036-21.364029 22.100719 8.840288 41.991367 51.568345 39.044605 85.456115l-2.946763 31.677698-0.736691-34.62446z" fill="#1296db" p-id="4284"></path><path d="M358.768345 805.202878c-7.366906-6.630216-6.630216-30.204317 1.473382-34.624461 2.946763-2.210072 4.420144 4.420144 2.210072 15.470504-2.946763 16.943885-1.473381 18.417266 15.470503 15.470503 11.05036-2.210072 17.680576-0.736691 15.470504 2.210072-4.420144 8.103597-27.994245 8.840288-34.624461 1.473382zM538.520863 787.522302c0.736691-13.997122 3.683453-33.151079 6.630216-43.464748 4.420144-11.78705 5.156835-4.420144 2.210072 22.100719-5.156835 46.411511-9.576978 58.935252-8.840288 21.364029zM597.456115 789.732374c-0.736691-14.733813 13.260432-38.307914 23.574101-38.307914 6.630216 0 6.630216 1.473381 0 5.893526-5.156835 2.946763-11.78705 13.997122-16.207194 23.5741-3.683453 10.313669-7.366906 13.997122-7.366907 8.840288zM686.595683 743.320863c-9.576978-11.78705-12.523741-19.890647-7.366906-17.680575 9.576978 3.683453 30.941007 33.151079 26.520863 36.834532-1.473381 0.736691-9.576978-8.103597-19.153957-19.153957zM293.939568 731.533813c9.576978-19.153957 36.097842-39.044604 52.305036-39.044604 5.893525 0 1.473381 5.156835-11.050359 11.78705-11.78705 5.893525-27.994245 18.417266-35.361151 27.257554l-13.260432 16.207194 7.366906-16.207194zM379.395683 715.326619c26.520863-3.683453 32.414388-8.840288 54.515108-47.148202 23.574101-40.517986 25.784173-41.991367 39.044605-30.204316 11.78705 11.05036 11.78705 13.997122 2.946762 24.310791-6.630216 6.630216-16.207194 23.574101-22.100719 37.571223s-11.05036 20.627338-11.787051 13.997122c0-6.630216 8.103597-23.574101 17.680576-38.307913 14.733813-21.364029 16.207194-27.994245 8.103597-34.624461-7.366906-5.893525-11.05036-5.156835-14.733813 5.893525-2.210072 8.103597-13.997122 27.994245-25.784172 44.93813-19.890647 26.520863-25.784173 30.204317-50.094964 29.467626l-27.257554-1.473381 29.467625-4.420144zM598.929496 705.74964c-18.417266-20.627338-46.411511-65.565468-46.41151-75.879136 0-3.683453 9.576978 9.576978 21.364028 29.467625 26.520863 46.411511 34.62446 53.041727 67.038849 57.461871l25.784173 2.946763-26.520863 0.73669c-18.417266 1.473381-30.204317-2.946763-41.254677-14.733813zM471.482014 710.906475c0-10.313669 24.310791-40.517986 33.15108-40.517986 4.420144 0 14.733813 7.366906 22.83741 16.943885l13.997122 16.207194-16.943885-14.733813-17.680576-14.733813-17.680575 20.627339c-9.576978 11.78705-17.680576 18.417266-17.680576 16.207194zM525.997122 658.601439c-20.627338-22.100719-35.361151-39.781295-32.414388-39.781295 8.103597 0 73.669065 65.565468 73.669065 73.669065 0 9.576978 2.210072 11.05036-41.254677-33.88777z" fill="#1296db" p-id="4285"></path><path d="M373.502158 687.332374c17.680576-3.683453 40.517986-30.941007 57.461871-69.985611 5.893525-13.260432 10.313669-19.153957 11.050359-13.260432 0 5.156835-10.313669 27.994245-23.5741 49.358273-19.153957 31.677698-27.257554 39.044604-42.728058 38.307914-16.943885-1.473381-16.943885-1.473381-2.210072-4.420144zM614.4 683.648921c-2.946763-5.156835-10.313669-17.680576-16.207194-27.994245l-10.313669-18.417266 15.470503 18.417266c8.103597 10.313669 15.470504 20.627338 15.470504 23.574101s7.366906 6.630216 16.943885 8.103597c16.207194 2.946763 16.207194 2.946763 0 4.420144-8.840288 0-18.417266-3.683453-21.364029-8.103597zM471.482014 458.221583c-42.728058-86.192806-78.089209-160.598561-79.56259-165.755396-0.736691-5.156835 34.62446 63.355396 79.56259 151.758273 44.938129 89.139568 81.035971 163.545324 79.56259 165.755396-1.473381 2.946763-36.834532-65.565468-79.56259-151.758273zM472.218705 588.615827c-4.420144-13.260432-6.630216-25.047482-5.156834-26.520863s6.630216 7.366906 11.050359 20.627338 6.630216 25.047482 5.156835 26.520863-6.630216-7.366906-11.05036-20.627338zM489.899281 589.352518c-5.156835-8.840288 1.473381-22.100719 11.78705-22.100719 3.683453 0 6.630216 6.630216 6.630216 14.733813 0 15.470504-11.05036 19.890647-18.417266 7.366906zM567.988489 588.615827c-0.736691-13.260432 14.733813-60.408633 18.417266-56.72518 1.473381 1.473381-2.210072 17.680576-8.103597 35.361152-5.156835 18.417266-10.313669 27.994245-10.313669 21.364028zM431.700719 555.464748c-6.630216-19.153957-10.313669-36.097842-8.840287-37.571223s8.103597 12.523741 14.733813 31.677698 10.313669 36.097842 8.840287 37.571223-8.103597-12.523741-14.733813-31.677698zM542.204317 540.730935c-2.946763-6.630216-2.946763-13.997122-0.736691-16.207194s3.683453 0 3.683453 5.156835 3.683453 6.630216 7.366907 4.420143c4.420144-2.210072 7.366906-1.473381 7.366906 2.946763 0 13.260432-13.260432 15.470504-17.680575 3.683453zM439.067626 496.529496c-6.630216-19.153957-10.313669-36.097842-8.840288-37.571223s8.103597 12.523741 14.733813 31.677698 10.313669 36.097842 8.840288 37.571223-8.103597-12.523741-14.733813-31.677698zM571.671942 486.215827c2.210072-10.313669 8.103597-23.574101 11.787051-29.467626 4.420144-7.366906 5.156835-5.156835 1.473381 7.366907-2.210072 10.313669-8.103597 23.574101-11.78705 29.467626-4.420144 7.366906-5.156835 5.156835-1.473382-7.366907zM601.139568 486.215827c2.946763-10.313669 9.576978-27.994245 14.733813-40.517985 8.103597-17.680576 9.576978-18.417266 5.893525-3.683454-2.946763 10.313669-9.576978 28.730935-14.733812 40.517986-8.103597 17.680576-9.576978 18.417266-5.893526 3.683453zM394.866187 452.328058c-6.630216-19.153957-10.313669-36.097842-8.840288-37.571223s8.103597 12.523741 14.733813 31.677697 10.313669 36.097842 8.840288 37.571223-8.103597-12.523741-14.733813-31.677697zM523.78705 484.005755c-1.473381-12.523741 156.178417-317.513669 159.12518-309.410072 2.210072 5.156835-0.736691 22.100719-5.893525 36.834533-5.156835 16.943885-10.313669 23.574101-12.523741 17.680575s-34.62446 50.094964-72.195683 125.23741c-37.571223 74.405755-68.51223 133.341007-68.512231 129.657554zM580.51223 304.253237c42.728058-84.719424 81.035971-155.441727 85.456115-158.388489 15.470504-10.313669 22.83741-5.893525 8.103597 4.420144-8.103597 5.893525-47.884892 76.615827-88.402877 158.388489S510.526619 456.748201 508.316547 456.748201s30.204317-68.51223 72.195683-152.494964zM402.233094 393.392806c-6.630216-19.153957-10.313669-36.097842-8.840288-37.571223s8.103597 12.523741 14.733813 31.677698 10.313669 36.097842 8.840287 37.571223-8.103597-12.523741-14.733812-31.677698zM601.139568 405.179856c2.946763-10.313669 9.576978-27.994245 14.733813-40.517985 8.103597-17.680576 9.576978-18.417266 5.893525-3.683454-2.946763 10.313669-9.576978 28.730935-14.733812 40.517986-8.103597 17.680576-9.576978 18.417266-5.893526 3.683453zM637.974101 383.079137c2.946763-10.313669 9.576978-27.994245 14.733813-40.517986 8.103597-17.680576 9.576978-18.417266 5.893525-3.683453-2.946763 10.313669-9.576978 28.730935-14.733813 40.517985-8.103597 17.680576-9.576978 18.417266-5.893525 3.683454zM358.031655 349.191367c-6.630216-19.153957-10.313669-36.097842-8.840288-37.571223s8.103597 12.523741 14.733813 31.677698 10.313669 36.097842 8.840288 37.571223-8.103597-12.523741-14.733813-31.677698zM408.863309 264.471942c-28.730935-57.461871-58.198561-108.293525-66.302158-114.18705-14.733813-10.313669-7.366906-14.733813 8.103597-4.420144 9.576978 5.893525 115.660432 215.113669 111.976979 219.533813-1.473381 1.473381-25.784173-44.201439-53.778418-100.926619zM365.398561 290.256115c-6.630216-19.153957-10.313669-36.097842-8.840288-37.571223s8.103597 12.523741 14.733813 31.677698 10.313669 36.097842 8.840288 37.571223-8.103597-12.523741-14.733813-31.677698zM637.974101 302.043165c2.210072-10.313669 8.103597-23.574101 11.78705-29.467625 4.420144-7.366906 5.156835-5.156835 1.473381 7.366906-2.210072 10.313669-8.103597 23.574101-11.78705 29.467626-4.420144 7.366906-5.156835 5.156835-1.473381-7.366907zM674.808633 279.942446c2.210072-10.313669 8.103597-23.574101 11.78705-29.467626 4.420144-7.366906 5.156835-5.156835 1.473382 7.366907-2.210072 10.313669-8.103597 23.574101-11.787051 29.467626-4.420144 7.366906-5.156835 5.156835-1.473381-7.366907zM321.197122 246.054676c-6.630216-19.153957-10.313669-36.097842-8.840287-37.571223s8.103597 12.523741 14.733812 31.677698 10.313669 36.097842 8.840288 37.571223-8.103597-12.523741-14.733813-31.677698zM332.247482 198.169784c-9.576978-28.730935-9.576978-28.730935 0-28.730935 3.683453 0 5.156835 3.683453 2.946763 7.366906-2.210072 4.420144-1.473381 7.366906 2.946762 7.366907s5.156835 5.156835 2.946763 12.523741c-2.946763 8.103597-2.210072 10.313669 3.683453 6.630216s7.366906-1.473381 4.420144 5.893525c-5.893525 16.207194-7.366906 14.733813-16.943885-11.05036zM707.959712 175.332374c0-10.313669-5.156835-21.364029-9.576978-22.83741-7.366906-2.946763-7.366906-4.420144 0-4.420144 11.78705-0.736691 18.417266 16.207194 13.997122 33.88777-2.210072 8.840288-3.683453 6.630216-4.420144-6.630216z" fill="#1296db" p-id="4286"></path><path d="M682.17554 870.031655c13.260432-8.103597 28.730935-22.100719 35.361151-30.941008 6.630216-9.576978 11.78705-13.260432 11.78705-8.840287 0 10.313669-49.358273 53.778417-61.145324 53.778417-5.156835 0 1.473381-6.630216 13.997123-13.997122zM416.966906 837.617266c11.78705-10.313669 22.100719-28.730935 25.047482-46.411511 5.156835-27.257554 5.893525-27.257554 6.630216-5.156834 0.736691 22.83741-28.730935 68.51223-44.201439 68.51223-4.420144 0 1.473381-7.366906 12.523741-16.943885zM588.615827 834.670504l-17.680575-20.627339 22.100719 18.417267c12.523741 10.313669 23.574101 19.153957 25.047482 20.627338 1.473381 0.736691 0 1.473381-4.420144 1.473381-3.683453 0-14.733813-8.840288-25.047482-19.890647zM358.768345 805.202878c-7.366906-6.630216-6.630216-30.204317 1.473382-34.624461 2.946763-2.210072 4.420144 4.420144 2.210072 15.470504-2.946763 16.943885-1.473381 18.417266 15.470503 15.470503 11.05036-2.210072 17.680576-0.736691 15.470504 2.210072-4.420144 8.103597-27.994245 8.840288-34.624461 1.473382zM539.994245 784.57554c0-16.207194 1.473381-22.100719 2.946762-12.523741 1.473381 8.840288 1.473381 22.100719 0 29.467625-2.210072 6.630216-3.683453-0.736691-2.946762-16.943884zM618.820144 798.572662c-8.103597-8.840288-7.366906-13.260432 2.210072-22.10072 6.630216-5.893525 8.840288-6.630216 5.156834-1.473381-11.05036 13.260432-8.840288 20.627338 9.576979 27.994245 11.05036 4.420144 12.523741 6.630216 4.420144 6.630216-6.630216 0.736691-16.207194-4.420144-21.364029-11.05036zM723.430216 749.951079c-7.366906-22.100719-7.366906-22.83741 2.210072-10.313669s15.470504 33.88777 8.840288 33.88777c-0.736691 0-5.893525-11.05036-11.05036-23.574101zM685.858993 741.110791l-17.680576-22.83741 20.627338 19.890648c11.78705 11.05036 19.890647 21.364029 17.680576 22.83741-1.473381 2.210072-11.05036-7.366906-20.627338-19.890648zM315.303597 709.433094c9.576978-9.576978 20.627338-16.943885 25.784173-16.943885s2.210072 4.420144-5.893525 8.840287-19.890647 11.78705-25.784173 16.207195c-6.630216 4.420144-3.683453 0.736691 5.893525-8.103597zM375.71223 716.8c13.997122-2.210072 32.414388-8.840288 40.517986-15.470504 14.733813-12.523741 14.733813-12.523741 0.73669 4.420144-10.313669 11.78705-21.364029 16.207194-40.517985 14.733813l-26.520863-0.73669 25.784172-2.946763zM595.982734 702.066187l-17.680576-20.627338 18.417266 16.207194c10.313669 8.840288 30.204317 16.943885 44.201439 19.153957l25.784173 2.946763-26.520863 0.73669c-19.890647 1.473381-30.204317-2.946763-44.201439-18.417266zM492.109353 685.122302l16.207194-17.680575 16.943885 17.680575 16.207194 17.680576-16.207194-13.260432c-16.207194-13.997122-17.680576-13.997122-33.151079 0l-16.943885 13.260432 16.943885-17.680576zM372.028777 687.332374c8.103597-1.473381 22.83741-11.78705 32.414388-22.83741s14.733813-14.733813 11.787051-8.840288c-11.78705 22.83741-28.730935 36.834532-43.464748 36.097842s-14.733813-1.473381-0.736691-4.420144zM466.32518 665.231655c11.78705-11.78705 11.78705-13.260432-0.736691-27.257554-12.523741-15.470504-12.523741-15.470504 4.420144-1.473382 15.470504 13.260432 15.470504 14.733813 4.420144 27.994245-7.366906 7.366906-14.733813 13.260432-16.943885 13.260432s1.473381-5.893525 8.840288-12.523741z" fill="#1296db" p-id="4287"></path><path d="M563.568345 654.917986c-6.630216-12.523741-11.05036-24.310791-9.576978-25.784173 2.210072-1.473381 8.840288 8.840288 15.470504 22.83741 15.470504 31.677698 9.576978 34.62446-5.893526 2.946763zM489.899281 589.352518c-5.893525-9.576978 2.210072-22.100719 13.260431-21.364029 6.630216 0 6.630216 1.473381 0 4.420144-5.156835 1.473381-9.576978 6.630216-9.576978 10.313669 0 4.420144 3.683453 5.156835 7.366906 2.946763 4.420144-2.210072 7.366906-0.736691 7.366907 2.946762 0 10.313669-12.523741 10.313669-18.417266 0.736691zM458.221583 430.227338c-37.571223-74.405755-67.77554-137.761151-67.038849-141.444604 0-2.946763 31.677698 57.461871 69.985611 134.077698 38.307914 75.879137 69.248921 139.971223 67.77554 141.444604s-33.151079-58.935252-70.722302-134.077698zM529.680576 405.916547c14.733813-27.994245 27.257554-50.094964 28.730935-48.621583 3.683453 2.946763-44.938129 99.453237-50.831655 99.453237-2.210072 0 7.366906-22.83741 22.10072-50.831654zM553.254676 425.070504c-1.473381-13.260432 127.447482-257.841727 130.394245-248.264749 2.210072 5.156835 0 11.78705-4.420144 13.260432s-5.893525 7.366906-3.683453 13.997122c3.683453 8.840288 2.210072 10.313669-4.420144 5.893526-7.366906-3.683453-8.840288-0.736691-5.156835 11.78705 2.210072 9.576978 2.210072 13.260432-0.73669 7.366906-2.946763-6.630216-24.310791 28.730935-58.198561 95.769785-29.467626 58.198561-53.778417 103.873381-53.778418 100.189928zM406.653237 260.788489c-29.467626-58.198561-53.041727-109.030216-52.305036-111.976978 0-2.946763 25.047482 44.201439 55.251799 104.610072 30.204317 59.671942 54.515108 110.503597 53.041727 111.976978s-26.520863-45.67482-55.98849-104.610072z" fill="#1296db" p-id="4288"></path><path d="M379.395683 716.8c12.523741-2.210072 28.730935-8.840288 36.834533-15.470504 14.733813-12.523741 14.733813-12.523741 0.73669 4.420144-9.576978 11.05036-21.364029 16.207194-36.834532 15.470504l-22.83741-1.473381 22.100719-2.946763zM621.030216 716.8c6.630216-1.473381 18.417266-1.473381 25.784172 0 6.630216 2.210072 0.736691 3.683453-13.260431 3.683453s-19.890647-1.473381-12.523741-3.683453zM492.109353 685.122302l16.207194-17.680575 16.943885 17.680575 16.207194 17.680576-16.207194-13.260432c-16.207194-13.997122-17.680576-13.997122-33.151079 0l-16.943885 13.260432 16.943885-17.680576zM372.028777 687.332374c8.103597-2.210072 19.890647-7.366906 25.784173-12.523741 9.576978-7.366906 9.576978-6.630216 0.73669 5.156835-5.156835 6.630216-16.943885 11.78705-25.784172 11.78705-14.733813-0.736691-14.733813-1.473381-0.736691-4.420144z" fill="#1296db" p-id="4289"></path><path d="M491.372662 685.122302c16.943885-17.680576 16.943885-17.680576 29.467626-3.683453 12.523741 13.260432 12.523741 13.260432 0 4.420144-11.05036-8.840288-15.470504-8.103597-29.467626 3.683453l-16.207194 13.260432 16.207194-17.680576zM372.028777 687.332374c8.103597-2.210072 19.890647-7.366906 25.784173-12.523741 9.576978-7.366906 9.576978-6.630216 0.73669 5.156835-5.156835 6.630216-16.943885 11.78705-25.784172 11.78705-14.733813-0.736691-14.733813-1.473381-0.736691-4.420144z" fill="#1296db" p-id="4290"></path></svg>