<?xml version="1.0" standalone="no"?><!DOCTYPE svg PUBLIC "-//W3C//DTD SVG 1.1//EN" "http://www.w3.org/Graphics/SVG/1.1/DTD/svg11.dtd"><svg t="1709948152931" class="icon" viewBox="0 0 1024 1024" version="1.1" xmlns="http://www.w3.org/2000/svg" p-id="28184" data-darkreader-inline-fill="" xmlns:xlink="http://www.w3.org/1999/xlink" width="200" height="200"><path d="M984.4 421.28A40.16 40.16 0 0 0 955.92 409.6H634.32a29.28 29.28 0 0 1-29.28-29.28v-336A44.96 44.96 0 0 0 560.08 0h-114.88a44.96 44.96 0 0 0-44.96 44.96v333.44a32 32 0 0 1-31.2 32h-105.6a32 32 0 0 1-32-32V44.64A45.12 45.12 0 0 0 187.92 0H72.88A44.96 44.96 0 0 0 27.92 44.96V984A40 40 0 0 0 67.92 1024H955.92a40.16 40.16 0 0 0 28.32-11.68 40.8 40.8 0 0 0 11.68-28.32V449.6a40.48 40.48 0 0 0-11.52-28.32z m-179.2 340.96a52.32 52.32 0 0 1-52.32 52.32h-90.72a52.48 52.48 0 0 1-52.48-52.32V672a52.48 52.48 0 0 1 52.48-52.32h90.72A52.32 52.32 0 0 1 805.2 672z" fill="#FF6600" p-id="28185" data-darkreader-inline-fill="" style="--darkreader-inline-fill: #f56200;"></path></svg>