<?xml version="1.0" standalone="no"?><!DOCTYPE svg PUBLIC "-//W3C//DTD SVG 1.1//EN" "http://www.w3.org/Graphics/SVG/1.1/DTD/svg11.dtd"><svg t="1708849762265" class="icon" viewBox="0 0 1024 1024" version="1.1" xmlns="http://www.w3.org/2000/svg" p-id="5323" xmlns:xlink="http://www.w3.org/1999/xlink" width="200" height="200"><path d="M845.43051 178.941462l-0.921999-0.478907 0-0.444115C759.83504 93.347015 642.894677 41.182958 513.784134 41.182958c-128.597867 0-245.333568 52.164057-330.014202 136.356574l-0.675382 0.923022C98.901009 263.169795 46.053384 379.597481 46.053384 508.708024c0 128.631636 52.368718 245.778706 136.562259 330.24547l0.956791 0.445138c84.432994 84.671425 201.134927 137.485281 330.210677 137.485281 129.110543 0 246.050905-52.334949 330.279239-137.006374l0.445138-0.478907c84.637656-84.432994 137.279596-201.612811 137.279596-330.689584C981.788108 380.076388 929.624051 263.61391 845.43051 178.941462L845.43051 178.941462zM797.949103 793.113469 797.949103 793.113469c-72.262814 72.742744-172.8313 117.624954-284.164968 117.624954-110.822015 0-211.42427-44.88221-284.132222-117.624954-72.741721-72.741721-117.658723-173.343977-117.658723-284.405445 0-110.856807 44.917002-211.423247 117.658723-283.926538C302.359864 152.039765 402.96212 106.883309 513.784134 106.883309c111.334691 0 211.902154 45.155433 284.164968 117.898177 72.981175 72.503291 117.8992 173.069731 117.8992 283.926538C915.848303 619.770516 870.931301 720.371748 797.949103 793.113469L797.949103 793.113469zM755.18616 267.339768 755.18616 267.339768c-61.768809-61.256132-146.877185-99.644441-241.402025-99.644441-94.209662 0-179.12054 38.388309-240.85558 99.644441-61.73504 61.73504-100.123348 147.364279-100.123348 241.368256 0 94.482885 38.388309 179.599448 100.123348 241.334487 61.73504 61.768809 146.645918 99.882871 240.85558 99.882871 94.52484 0 179.633217-38.114063 241.402025-99.882871 61.73504-61.73504 100.054787-146.851603 100.054787-241.334487C855.24197 414.704047 816.921199 329.074807 755.18616 267.339768L755.18616 267.339768zM727.121987 722.013131 727.121987 722.013131c-54.522778 54.692646-129.58945 88.363514-213.337853 88.363514-83.236749 0-158.542876-33.669844-212.791407-88.363514-54.966892-54.283324-88.63776-130.067334-88.63776-213.304084 0-82.791611 33.670867-158.541853 88.63776-213.304084 54.248531-54.248531 129.554658-87.919399 212.791407-87.919399 83.749426 0 158.815075 33.670867 213.337853 87.919399 54.726415 54.762231 88.398306 130.512473 88.398306 213.304084C815.520293 591.944773 781.849426 667.729807 727.121987 722.013131L727.121987 722.013131z" fill="#d81e06" p-id="5324"></path><path d="M674.069701 314.752614 556.855092 514.109034l92.329848 0 0 44.062542L541.608853 558.171576l0 60.709687 107.575064 0 0 44.642756L541.608853 663.524019l0 88.398306-55.377238 0 0-88.398306-111.540376 0 0-44.642756 111.540376 0 0-60.709687-111.540376 0 0-44.062542 95.166453 0L353.806583 314.752614l62.384839 0c54.248531 98.994642 87.167269 161.789826 98.857519 188.349739l1.128707 0c3.965312-10.93812 14.767332-32.952506 32.473599-66.075905l66.38392-122.273834L674.069701 314.752614z" fill="#d81e06" p-id="5325"></path></svg>