<?xml version="1.0" standalone="no"?><!DOCTYPE svg PUBLIC "-//W3C//DTD SVG 1.1//EN" "http://www.w3.org/Graphics/SVG/1.1/DTD/svg11.dtd"><svg t="1710139822338" class="icon" viewBox="0 0 1024 1024" version="1.1" xmlns="http://www.w3.org/2000/svg" p-id="33786" xmlns:xlink="http://www.w3.org/1999/xlink" width="200" height="200"><path d="M384 576H0V192h384z m448 448H448v-384h384z m-448 0H0v-384h384z" fill="#212121" p-id="33787"></path><path d="M345.216 524.8h-59.84V364.032q0-26.112 2.24-57.6h-1.472a288 288 0 0 1-8.448 35.648L214.656 524.8h-49.472l-64-180.928a362.176 362.176 0 0 1-8.448-37.504h-1.792q2.368 39.744 2.432 69.76V524.8H38.784V256h88.704l54.976 159.36a225.152 225.152 0 0 1 9.536 38.4h1.152a367.296 367.296 0 0 1 10.688-38.848L258.752 256h86.464zM283.456 753.344H188.544V819.2h87.232v49.088H188.544V972.8H128V704h155.456zM721.6 956.8a177.6 177.6 0 0 1-76.8 14.208 129.536 129.536 0 0 1-97.28-36.352A133.056 133.056 0 0 1 512 837.696a141.952 141.952 0 0 1 39.872-104.576 139.264 139.264 0 0 1 103.36-40.128 192.576 192.576 0 0 1 66.368 9.92v58.304a117.44 117.44 0 0 0-61.504-16.128 81.728 81.728 0 0 0-61.12 23.808A88.384 88.384 0 0 0 576 833.408a86.784 86.784 0 0 0 21.952 62.208 77.44 77.44 0 0 0 59.072 23.104 125.568 125.568 0 0 0 64.832-17.28z" fill="#FFFFFF" p-id="33788"></path></svg>