<?xml version="1.0" standalone="no"?><!DOCTYPE svg PUBLIC "-//W3C//DTD SVG 1.1//EN" "http://www.w3.org/Graphics/SVG/1.1/DTD/svg11.dtd"><svg t="1709798557864" class="icon" viewBox="0 0 1024 1024" version="1.1" xmlns="http://www.w3.org/2000/svg" p-id="4444" data-darkreader-inline-fill="" xmlns:xlink="http://www.w3.org/1999/xlink" width="200" height="200"><path d="M888.32 751.36A278.4 278.4 0 0 0 768 768c-9.6 3.84-23.68 3.84-24.96 15.36s5.12 12.8 9.6 19.84a134.4 134.4 0 0 0 31.36 37.12c12.8 9.6 25.6 19.2 39.04 28.16 23.68 14.72 50.56 23.04 73.6 37.76 13.44 8.32 26.88 19.2 40.32 28.8s10.88 12.8 19.84 16c-4.48-5.76-5.76-13.44-10.24-19.84l-17.92-17.92a303.36 303.36 0 0 0-64-64c-19.84-13.44-64-31.36-70.4-54.4a243.84 243.84 0 0 0 41.6-9.6c21.12-5.76 39.68-4.48 64-9.6l29.44-8.32v-5.76c-10.88-10.88-18.56-25.6-30.72-35.84a792.32 792.32 0 0 0-100.48-75.52c-18.56-12.16-42.88-19.84-64-30.08-7.68-3.84-19.84-5.76-24.32-11.52a277.12 277.12 0 0 1-24.96-47.36c-17.28-33.28-34.56-70.4-49.92-106.24A677.76 677.76 0 0 0 604.8 384a615.04 615.04 0 0 0-235.52-227.2 279.68 279.68 0 0 0-78.08-24.96L245.76 128a235.52 235.52 0 0 1-28.16-21.76C183.04 85.76 93.44 38.4 67.84 101.12c-16.64 39.68 24.32 78.72 38.4 98.56a275.2 275.2 0 0 1 30.72 46.08c4.48 10.24 5.76 21.12 10.24 32.64a734.72 734.72 0 0 0 31.36 81.28 366.72 366.72 0 0 0 22.4 37.76c5.12 7.04 13.44 10.24 15.36 21.12a198.4 198.4 0 0 0-14.08 45.44 269.44 269.44 0 0 0 17.92 205.44c9.6 15.36 32.64 48.64 64 35.84s21.12-45.44 28.8-76.16c0-7.68 0-12.16 4.48-17.28 8.32 17.28 17.28 33.28 24.96 50.56a332.8 332.8 0 0 0 79.36 81.92c14.08 10.88 26.24 30.08 44.16 36.48A87.68 87.68 0 0 0 448 768a278.4 278.4 0 0 1-31.36-36.48A802.56 802.56 0 0 1 350.72 620.8c-9.6-19.2-17.92-39.68-26.24-58.88-4.48-7.04-4.48-18.56-9.6-21.76a234.88 234.88 0 0 0-28.8 40.96 332.8 332.8 0 0 0-17.28 92.8c-19.2-4.48-26.24-24.96-33.28-41.6a261.76 261.76 0 0 1-5.76-163.2c4.48-12.8 22.4-53.12 15.36-64s-18.56-21.12-24.96-28.16a195.2 195.2 0 0 1-21.76-39.04c-14.72-33.92-22.4-72.32-37.76-106.24A327.04 327.04 0 0 0 128 184.96a290.56 290.56 0 0 1-33.28-48c-3.2-6.4-7.68-17.28 0-24.96s3.84-6.4 8.32-7.68 30.72 0 38.4 5.12a331.52 331.52 0 0 1 60.16 30.72c8.96 5.76 17.92 17.92 28.8 20.48h12.8c19.2 4.48 41.6 0 59.52 7.04a371.2 371.2 0 0 1 87.68 42.24 538.88 538.88 0 0 1 192 208.64c7.04 14.08 10.24 26.88 17.28 41.6 12.8 30.08 28.16 60.16 40.96 89.6a400 400 0 0 0 43.52 81.92c8.96 12.8 45.44 19.2 64 26.24a402.56 402.56 0 0 1 41.6 16.64c21.12 12.8 41.6 27.52 64 41.6 9.6 7.68 39.68 23.04 41.6 35.2" fill="#077088" p-id="4445" data-darkreader-inline-fill="" style="--darkreader-inline-fill: #076c83;"></path><path d="M267.52 220.8a90.88 90.88 0 0 0-24.96 0 192 192 0 0 0 19.2 25.6c5.12 9.6 9.6 19.2 14.08 28.8a33.92 33.92 0 0 0 12.8-30.08 87.04 87.04 0 0 1-7.04-12.8c-3.84-6.4-11.52-9.6-16.64-14.08" fill="#077088" p-id="4446" data-darkreader-inline-fill="" style="--darkreader-inline-fill: #85ffff;"></path></svg>