<?xml version="1.0" standalone="no"?><!DOCTYPE svg PUBLIC "-//W3C//DTD SVG 1.1//EN" "http://www.w3.org/Graphics/SVG/1.1/DTD/svg11.dtd"><svg t="1709948195388" class="icon" viewBox="0 0 1024 1024" version="1.1" xmlns="http://www.w3.org/2000/svg" p-id="29188" data-darkreader-inline-fill="" xmlns:xlink="http://www.w3.org/1999/xlink" width="200" height="200"><path d="M989.61947 208.273511C968.257953 85.260849 938.733523 55.963593 814.039569 34.137495 734.653521 20.246113 622.592282 12.279674 506.630201 12.279674c-114.940822 0-221.24187 7.486508-299.308877 21.047362C84.29536 54.704926 54.996057 84.242659 33.213961 208.90489 4.33626 373.981576 3.900332 651.794883 32.269449 815.550481c21.302165 123.012661 50.839899 152.296615 175.577854 174.136016 79.583546 13.924127 191.885262 21.902846 308.084751 21.902846l0.017396 0c114.656343 0 220.748636-7.440459 298.695916-20.941961 123.040291-21.393239 152.35392-50.91767 174.107363-175.6106C1017.63964 649.934512 1018.03259 372.058784 989.61947 208.273511M958.509938 809.752428c-19.533892 111.792109-39.035038 131.508149-149.118226 150.647045-76.265988 13.201673-180.468235 20.464077-293.445332 20.464077l-0.017396 0c-114.51922 0-224.871537-7.800663-302.790164-21.422915C101.306802 939.851485 81.594855 920.316569 62.541917 810.325479c-27.872814-160.90876-27.451212-433.902294 0.946558-596.143399C83.021344 102.420671 102.52249 82.708723 212.573955 63.597457c76.402087-13.277398 180.826392-20.596084 294.059316-20.596084 114.249067 0 224.39263 7.800663 302.130132 21.403472C920.524812 83.966367 940.234713 103.483886 959.377702 213.520001 987.280192 374.440018 986.890312 647.466298 958.509938 809.752428" fill="#38C4F5" p-id="29189" data-darkreader-inline-fill="" style="--darkreader-inline-fill: #0a98ca;"></path><path d="M281.139563 655.333476l-51.056839 48.423873-12.105712 66.845431c0 0 0.147356 0 97.900727 0C280.269753 719.179596 281.139563 655.333476 281.139563 655.333476zM502.733451 113.307625l0-0.639566c-0.088004 0.106424-0.174985 0.212848-0.26299 0.320295-0.088004-0.106424-0.174985-0.213871-0.26299-0.320295l0 0.639566C179.744245 504.563634 351.670943 773.236769 351.670943 773.236769l47.898917-27.897374 102.637612 0 0.527003 0 102.637612 0 47.89994 27.897374C653.268956 773.236769 825.195653 504.563634 502.733451 113.307625zM632.741433 700.600449c-21.012569 0-121.859395 0-130.007983 0 0 0-0.181125 0-0.527003 0-8.148587 0-108.993366 0-130.007983 0C284.202319 436.914908 494.143818 190.498682 502.470461 180.869371 510.79608 190.497659 720.738603 436.913884 632.741433 700.600449zM774.856152 703.757349l-51.057863-48.423873c0 0 0.870834 63.84612-34.738176 115.27135 97.752348 0 97.900727 0 97.900727 0L774.856152 703.757349zM502.206448 773.236769l-61.582567 0c7.437389 75.118861 56.018851 119.443369 61.582567 124.292817l0 0.451278c0 0 0.096191-0.079818 0.26299-0.225127 0.167822 0.144286 0.26299 0.225127 0.26299 0.225127l0-0.451278c5.563716-4.849448 54.145178-49.173956 61.58359-124.292817l-61.58359 0L502.206448 773.236769zM466.677257 518.483668c-5.668093 0-10.262738 4.594645-10.262738 10.263761 0 5.668093 4.594645 10.262738 10.262738 10.262738 5.669116 0 10.262738-4.594645 10.262738-10.262738C476.942041 523.078313 472.346373 518.483668 466.677257 518.483668zM496.153592 518.483668c-5.669116 0-10.263761 4.594645-10.263761 10.263761 0 5.668093 4.595668 10.262738 10.263761 10.262738s10.263761-4.594645 10.263761-10.262738C506.417353 523.078313 501.822708 518.483668 496.153592 518.483668zM524.575922 518.483668c-5.669116 0-10.263761 4.594645-10.263761 10.263761 0 5.668093 4.594645 10.262738 10.263761 10.262738s10.262738-4.594645 10.262738-10.262738C534.840706 523.078313 530.245038 518.483668 524.575922 518.483668zM577.474712 589.014024c-4.461615 0-8.783037 0.618077-12.877285 1.772366l-11.711739-14.059204c8.106632-9.80225 23.130813-37.016055 14.062274-66.13935-2.385327-7.579629-6.515391-17.545608-13.563924-26.833135l10.18906-8.9263c4.840238 2.338255 10.269901 3.650133 16.007579 3.650133 20.349467 0 36.846186-16.495696 36.846186-36.84414 0-20.348444-16.496719-36.84414-36.846186-36.84414-20.348444 0-36.845163 16.495696-36.845163 36.84414 0 4.807493 0.930185 9.392928 2.606361 13.603833l-12.165064 10.654664c-9.248641-5.237281-20.788465-8.719592-35.181267-8.993838-16.20303 0.992607-29.755698 4.243651-41.045835 11.022031l-13.175067-16.024975c0.688685-2.246157 1.060145-4.630461 1.060145-7.102768 0-13.371542-10.839883-24.212448-24.212448-24.212448-13.371542 0-24.211425 10.839883-24.211425 24.212448s10.839883 24.213471 24.211425 24.213471c0.712221 0 1.418302-0.036839 2.113127-0.098237l14.262842 18.035772c-3.737114 5.39794-7.079232 11.661597-10.0591 18.907629-4.600785 14.786775-5.507434 29.41903-0.994654 45.195342l-0.059352 0.069585c1.167592 4.619204 2.849908 8.851599 4.64888 12.541641l-10.500145 9.184173c-3.465938-1.447978-7.267521-2.25025-11.256368-2.25025-16.134469 0-29.212322 13.078877-29.212322 29.212322 0 16.135492 13.077853 29.214369 29.212322 29.214369 16.133446 0 29.212322-13.078877 29.212322-29.214369 0-2.925632-0.435928-5.750981-1.237177-8.41874l7.795547-6.818289c7.692193 6.247284 26.034956 18.789948 49.234331 18.657942 8.563026 0.277316 18.432815-0.756223 28.996404-5.068436l13.037944 15.650445c-3.64604 6.711865-5.716188 14.403035-5.716188 22.577205 0 26.161846 21.209044 47.370891 47.370891 47.370891s47.370891-21.209044 47.370891-47.370891C624.843556 610.224092 603.636558 589.014024 577.474712 589.014024zM532.208762 574.802348c-21.461801 15.228843-55.890938 18.165732-79.55694-9.370415 0.025583-0.035816 0.051165-0.066515 0.077771-0.104377-0.51677-0.515746-1.007957-1.056052-1.488911-1.607614-0.220011-0.275269-0.435928-0.528026-0.647753-0.76441-5.364171-6.547113-8.447393-15.149025-10.05296-21.004383l-2.023076-12.94073c0 0-0.174985-38.776142 33.686217-53.16178 18.070564-7.894807 52.108798-12.106736 74.741261 23.158443C558.000172 519.009647 561.684074 550.063921 532.208762 574.802348z" fill="#38C4F5" p-id="29190" data-darkreader-inline-fill="" style="--darkreader-inline-fill: #0a98ca;"></path></svg>