<?xml version="1.0" standalone="no"?><!DOCTYPE svg PUBLIC "-//W3C//DTD SVG 1.1//EN" "http://www.w3.org/Graphics/SVG/1.1/DTD/svg11.dtd"><svg t="1710138644723" class="icon" viewBox="0 0 1024 1024" version="1.1" xmlns="http://www.w3.org/2000/svg" p-id="18348" xmlns:xlink="http://www.w3.org/1999/xlink" width="200" height="200"><path d="M66 868.3c13.8 34.5 49.8 41.5 79 19.9 6.3-4.7 11-11.3 13.2-18.8 12.7-42.6 64.6-214.1 86.4-254.7 25-46.4 75-157.2 103.6-200 28.6-42.9 121.4-167.9 185.7-217.9 0 0 63.5 42.3 149.5 181.6 26.6 43 48.9 88.6 67 135.8 32 83.3 85.7 230 90.7 289.8 0 0-192.9 42.9-267.9 42.9s-207.2-7.1-217.9-28.6c0 0 57.2-46.4 207.2-107.2 0 0 164.3-60.7 164.3-121.4s-42.9-82.2-89.3-92.9c-46.4-10.7-203.6-17.9-239.3-10.7s-96.4 32.1-71.4 89.3c25 57.2 82.2 21.4 82.2 21.4s3.6-7.1 7.1-7.1h146.5S476.9 629 409 661.1C346.9 690.5 269.7 729 234 804s21.4 103.6 85.7 117.9 171.5 46.4 364.3 17.9c192.9-28.6 178.6-28.6 178.6-28.6s107 4.2 96.4-71.4C937.6 686.1 844.7 457.5 794.7 361 746.4 267.8 687.6 203.9 659 171.7S569.7 64.6 537.6 68.1s-185.7 160.7-200 178.6c-14.3 17.9-150 196.5-210.8 378.6S58.9 850.4 66 868.3z" p-id="18349" fill="#1296db"></path></svg>