<?xml version="1.0" standalone="no"?><!DOCTYPE svg PUBLIC "-//W3C//DTD SVG 1.1//EN" "http://www.w3.org/Graphics/SVG/1.1/DTD/svg11.dtd"><svg t="1710139747240" class="icon" viewBox="0 0 1732 1024" version="1.1" xmlns="http://www.w3.org/2000/svg" p-id="32559" xmlns:xlink="http://www.w3.org/1999/xlink" width="338.28125" height="200"><path d="M775.805991 139.798703c76.812474 89.870595 114.450587 204.321182 114.450587 345.656135 0 138.262454-37.638112 251.944916-113.682462 341.815511l-2.304375 2.304374c-3.072499 3.072499-4.608748 5.376873-5.376873 6.913123 23.811867 30.72499 52.232483 69.131227 83.725597 114.450586 13.058121 18.434994 9.985622 43.78311-6.913122 59.145606l-3.840624 3.072499c-19.971243 16.898744-49.928108 13.826245-65.290603-7.681248-19.971243-28.420616-38.406237-53.768732-54.536857-76.044349-13.058121-17.666869-37.638112-23.043742-56.841231-12.289996-63.754354 34.565613-137.494329 52.232483-221.219926 52.232482-139.030579 0-248.872417-46.855609-329.525515-139.798703C38.406237 740.472253 0 626.021666 0 484.686713s38.406237-256.553664 114.450587-344.119885C195.87181 46.855609 305.713648 0 445.512351 0c140.566828 0 250.408666 46.855609 330.29364 139.798703z m-583.00668 66.058728C135.95808 276.524908 106.769339 369.468002 106.769339 484.686713c0 114.450587 28.420616 207.393681 86.029972 278.061157 59.91373 72.971851 143.639327 109.841838 251.944915 109.841839 54.536857 0 102.928716-9.217497 145.175577-27.652491 26.884366-11.521871 34.565613-45.31936 16.13062-68.363102-32.261239-39.174362-63.754354-76.04435-94.479344-109.841839-16.13062-17.666869-15.362495-45.31936 2.304374-61.449979 17.666869-16.898744 46.855609-16.13062 62.986229 2.304374 32.261239 34.565613 61.449979 68.363102 89.102471 101.392466 20.739368 24.579992 59.145605 19.203119 72.97185-9.217497 29.18874-59.91373 43.78311-131.349331 43.783111-213.538678 0-117.523086-29.18874-212.002429-87.566221-282.669906C636.007288 130.581206 553.049815 95.247468 445.512351 95.247468s-192.031186 36.869988-252.71304 110.609963zM1011.620287 18.434994h674.413525c24.579992 0 44.551235 19.971243 44.551235 44.551235v3.840624c0 24.579992-19.971243 44.551235-44.551235 44.551235h-240.423045c-24.579992 0-44.551235 19.971243-44.551235 44.551235v749.68975c0 24.579992-19.971243 44.551235-44.551235 44.551235h-16.898744c-24.579992 0-44.551235-19.971243-44.551236-44.551235V155.161198c0-24.579992-19.971243-44.551235-44.551235-44.551235h-240.423044c-24.579992 0-44.551235-19.971243-44.551235-44.551235v-3.840624c1.536249-23.811867 21.507493-43.78311 46.087484-43.78311z" p-id="32560" fill="#13227a"></path></svg>