<?xml version="1.0" standalone="no"?><!DOCTYPE svg PUBLIC "-//W3C//DTD SVG 1.1//EN" "http://www.w3.org/Graphics/SVG/1.1/DTD/svg11.dtd"><svg t="1710141591335" class="icon" viewBox="0 0 1024 1024" version="1.1" xmlns="http://www.w3.org/2000/svg" p-id="4318" xmlns:xlink="http://www.w3.org/1999/xlink" width="200" height="200"><path d="M930.7 902.8H728.4C865.7 826.6 958.6 680.2 958.6 512c0-246.7-200-446.6-446.6-446.6S65.4 265.3 65.4 512s200 446.6 446.6 446.6c7.5 0 15-0.2 22.4-0.6 1.8 0.4 3.6 0.6 5.6 0.6h390.8c15.4 0 27.9-12.5 27.9-27.9-0.1-15.4-12.6-27.9-28-27.9zM121.2 512c0-215.8 175-390.8 390.8-390.8s390.8 175 390.8 390.8-175 390.8-390.8 390.8-390.8-175-390.8-390.8z" fill="#1296db" p-id="4319"></path><path d="M512 421.3c73.2 0 132.6-59.4 132.6-132.6 0-73.2-59.4-132.6-132.6-132.6-73.2 0-132.6 59.4-132.6 132.6 0 73.2 59.4 132.6 132.6 132.6z m0-223.3c50.1 0 90.7 40.6 90.7 90.7s-40.6 90.7-90.7 90.7-90.7-40.6-90.7-90.7S461.9 198 512 198zM602.7 512c0 73.2 59.4 132.6 132.6 132.6 73.2 0 132.6-59.4 132.6-132.6 0-73.2-59.4-132.6-132.6-132.6-73.2 0-132.6 59.4-132.6 132.6z m132.6-90.7c50.1 0 90.7 40.6 90.7 90.7s-40.6 90.7-90.7 90.7-90.7-40.6-90.7-90.7 40.6-90.7 90.7-90.7zM421.3 512c0-73.2-59.4-132.6-132.6-132.6-73.2 0-132.6 59.4-132.6 132.6 0 73.2 59.4 132.6 132.6 132.6 73.2 0 132.6-59.4 132.6-132.6z m-132.6 90.7c-50.1 0-90.7-40.6-90.7-90.7s40.6-90.7 90.7-90.7 90.7 40.6 90.7 90.7-40.6 90.7-90.7 90.7zM644.6 735.3c0-73.2-59.4-132.6-132.6-132.6-73.2 0-132.6 59.4-132.6 132.6 0 73.2 59.4 132.6 132.6 132.6 73.2 0 132.6-59.4 132.6-132.6z m-223.3 0c0-50.1 40.6-90.7 90.7-90.7s90.7 40.6 90.7 90.7S562.1 826 512 826s-90.7-40.6-90.7-90.7z" fill="#1296db" p-id="4320"></path></svg>