<?xml version="1.0" standalone="no"?><!DOCTYPE svg PUBLIC "-//W3C//DTD SVG 1.1//EN" "http://www.w3.org/Graphics/SVG/1.1/DTD/svg11.dtd"><svg t="1709948986380" class="icon" viewBox="0 0 1024 1024" version="1.1" xmlns="http://www.w3.org/2000/svg" p-id="53231" data-darkreader-inline-fill="" xmlns:xlink="http://www.w3.org/1999/xlink" width="200" height="200"><path d="M512 50.859l399.36 230.57v461.142L512 973.14l-399.36-230.57V281.429L512 50.86z m0 68.949L172.33 315.904v392.15L512 904.148l339.627-196.096V315.904L512 119.808zM365.312 406.315V528.34l-0.043 7.894c-1.706 51.37-26.325 76.714-73.941 76.117-40.661 1.28-64.981-23.04-72.96-73.003l49.963-13.013 0.938 6.827c3.712 24.064 11.094 35.797 22.059 35.157 13.995-0.64 20.992-14.635 20.992-41.984V406.315h52.992z m73.003 57.002l21.034 89.003 1.963 19.03 2.987-19.03 21.034-89.003h52.011l-52.01 146.006h-48.982L386.347 463.36h51.968z m295.04-4.992c33.28-0.64 49.664 20.694 48.981 64v87.04h-51.03v-84.053l-0.213-5.12c-1.066-14.55-6.997-21.845-17.792-21.845-13.994 0-20.992 9.301-20.992 27.989v82.987H641.28v-84.95l-0.17-5.12c-1.238-14.506-7.809-21.461-19.798-20.906-11.35 0.682-17.365 9.685-18.005 27.008v84.053h-51.03v-147.03h51.03v13.014l3.925-4.01c9.515-8.662 21.888-13.014 37.077-13.014 19.328 0 32.982 7.68 40.96 23.04 12.032-15.36 28.032-23.04 48-23.04z" p-id="53232" fill="#1296db" data-darkreader-inline-fill="" style="--darkreader-inline-fill: #1190d2;"></path></svg>