<?xml version="1.0" standalone="no"?><!DOCTYPE svg PUBLIC "-//W3C//DTD SVG 1.1//EN" "http://www.w3.org/Graphics/SVG/1.1/DTD/svg11.dtd"><svg t="1709798699022" class="icon" viewBox="0 0 1024 1024" version="1.1" xmlns="http://www.w3.org/2000/svg" p-id="8804" data-darkreader-inline-fill="" xmlns:xlink="http://www.w3.org/1999/xlink" width="200" height="200"><path d="M513.316571 160.914286c48.245029 0 92.013714 37.054171 133.763658 110.650514l5.002971 8.996571c0.833829 1.536 1.667657 3.072 2.486857 4.637258l4.973714 9.537828c1.184914 2.311314 2.369829 4.666514 3.554743 7.050972v-1.506743H848.457143v56.071314l-160.621714-0.014629 3.657142 8.879543 4.885943 12.141715 4.856686 12.507428 4.842057 12.858514 4.842057 13.194972 2.428343 6.729143 4.827429 13.7216 2.413714 6.992457 3.905829 11.5712H848.457143v56.085943H670.178743a486.2976 486.2976 0 0 0-231.233829 58.499657l-7.5776 4.183771-9.172114 5.163886a502.272 502.272 0 0 1-238.006857 64.658286l-8.645486 0.073143v-56.071315c74.020571 0 146.856229-18.417371 211.924114-53.540571l7.197258-3.964343 9.172114-5.163886a542.368914 542.368914 0 0 1 257.316571-69.8368l4.066743-0.043885-2.647771-7.606858-4.754286-13.2096-4.725029-12.829257a1409.345829 1409.345829 0 0 0-2.369828-6.261028l-4.7104-12.229486A1260.309943 1260.309943 0 0 0 643.657143 396.873143l-4.695772-11.644343-4.681142-11.249371-2.340572-5.471086-4.637257-10.678857-4.637257-10.269257a832.117029 832.117029 0 0 0-2.311314-4.973715l-4.608-9.698743a707.247543 707.247543 0 0 0-4.578743-9.289142l-4.534857-8.9088-4.534858-8.513829a536.3712 536.3712 0 0 0-2.267428-4.096l-4.490972-7.943314-4.461714-7.533715c-28.145371-46.518857-54.520686-69.617371-77.560686-69.617371-17.934629 0-38.473143 14.628571-60.562285 44.587886l-4.578743 6.421943c-4.608 6.626743-9.274514 13.9264-13.999543 21.898971l-4.739657 8.192-2.384457 4.242286-4.783543 8.864914-2.413714 4.593371-4.827429 9.537829-2.428343 4.929829-4.871314 10.196114c-1.609143 3.4816-3.247543 7.021714-4.885943 10.664228l-4.9152 11.117715c-2.472229 5.661257-4.929829 11.498057-7.416686 17.5104a232.491886 232.491886 0 0 1-209.92 143.886628L175.542857 523.702857v-56.071314a176.420571 176.420571 0 0 0 163.108572-109.231543l0.848457-2.048H175.542857v-56.056686l189.293714-0.014628C410.477714 208.354743 458.503314 160.914286 513.316571 160.914286zM131.657143 690.731886h57.475657c11.381029-0.234057 21.664914 2.223543 30.237257 7.226514 6.495086 3.452343 11.6736 8.309029 15.725714 15.067429 3.423086 6.5536 5.046857 14.248229 5.046858 22.966857 0 11.322514-4.139886 21.694171-12.1856 30.72-8.118857 8.923429-19.514514 13.692343-33.733486 14.555428l-3.613257 0.146286H155.062857v54.637714H131.657143v-78.043428h58.7776c9.698743-0.146286 16.164571-2.589257 20.114286-6.933943 4.242286-4.768914 6.187886-9.640229 6.187885-15.067429 0-5.193143-0.848457-9.216-2.048-11.541943-1.462857-2.442971-3.510857-4.359314-6.714514-6.070857a32.885029 32.885029 0 0 0-15.506286-4.242285l-3.101257-0.014629H131.657143v-23.405714z m127.1808 96.5632c0.146286 15.140571 5.558857 27.150629 16.2816 36.030171 10.503314 9.142857 23.566629 13.780114 39.204571 13.911772 15.945143-0.131657 29.110857-4.768914 39.541029-13.911772 10.357029-8.879543 15.681829-20.8896 15.9744-36.030171v-95.158857h-23.683657v92.789028c-0.146286 9.801143-3.145143 17.276343-8.996572 22.410972-5.997714 5.397943-13.604571 8.0896-22.820571 8.0896s-16.749714-2.691657-22.615772-8.0896c-5.997714-5.134629-9.069714-12.609829-9.216-22.410972v-92.789028h-23.669028v95.158857z m141.1072 48.757028h99.752228v-20.626285h-76.068571v-123.2896h-23.698286v143.915885z m123.962514-34.933028l-15.535543 16.384c16.647314 13.165714 36.542171 19.748571 59.684572 19.748571 35.781486-0.4096 54.0672-14.350629 54.857143-41.866971a38.912 38.912 0 0 0-10.386286-26.843429c-7.021714-7.826286-17.846857-12.668343-32.475429-14.511543-7.431314-0.848457-13.282743-1.609143-17.568914-2.267428-7.723886-1.316571-13.326629-3.6864-16.822857-7.109486-3.510857-3.364571-5.266286-7.109486-5.266286-11.264 0.146286-6.890057 2.7648-12.097829 7.840914-15.579429 4.856686-3.364571 10.927543-5.032229 18.212572-5.032228 14.072686 0.263314 26.960457 3.949714 38.677943 11.044571l13.165714-17.963885c-14.336-9.537829-31.246629-14.511543-50.673371-14.906515-16.135314 0.146286-28.598857 4.022857-37.390629 11.658972-9.069714 7.694629-13.604571 17.832229-13.604571 30.398171 0 10.459429 3.598629 19.338971 10.825142 26.653257 6.992457 7.109486 17.2032 11.6736 30.632229 13.7216 7.504457 0.980114 14.394514 1.872457 20.6848 2.6624 13.706971 2.165029 20.494629 8.630857 20.362971 19.338972-0.292571 13.1072-10.576457 19.777829-30.866285 20.041143-17.144686-0.131657-31.919543-4.900571-44.353829-14.306743z m151.610514-16.5888l22.601143-62.8736h0.438857l22.601143 62.8736h-45.641143z m64.497372 51.521828h24.956343l-56.773486-143.915885h-19.821714l-56.788115 143.915885h25.073372l11.995428-32.182857h59.245715l12.112457 32.182857z m65.360457-124.459885h37.0688c7.562971 0 13.355886 1.462857 17.349486 4.432457 5.076114 3.364571 7.68 8.777143 7.826285 16.296228 0 6.2464-2.179657 11.512686-6.538971 15.798857-4.417829 4.593371-11.073829 6.9632-19.924114 7.094858h-35.781486v-43.6224z m-23.683657 124.459885h23.683657V774.582857h30.208l32.256 61.483886h28.174629l-36.220343-63.853714c19.8656-7.050971 29.930057-20.333714 30.222628-39.877486-0.438857-13.297371-5.602743-23.537371-15.535543-30.705372-8.221257-6.319543-18.826971-9.479314-31.817142-9.479314h-60.971886v143.915886z" fill="#027FEA" p-id="8805" data-darkreader-inline-fill="" style="--darkreader-inline-fill: #027ae0;"></path></svg>