<?xml version="1.0" standalone="no"?><!DOCTYPE svg PUBLIC "-//W3C//DTD SVG 1.1//EN" "http://www.w3.org/Graphics/SVG/1.1/DTD/svg11.dtd"><svg t="1710762916764" class="icon" viewBox="0 0 1031 1024" version="1.1" xmlns="http://www.w3.org/2000/svg" p-id="5277" xmlns:xlink="http://www.w3.org/1999/xlink" width="302.05078125" height="300"><path d="M873.202773 887.466667l153.6-725.333334c4.266667-29.866667 4.266667-51.2-12.8-64-12.8-12.8-29.866667-17.066667-55.466666-8.533333L49.736107 435.2c-21.333333 8.533333-34.133333 17.066667-42.666667 25.6-8.533333 8.533333-8.533333 17.066667-4.266667 25.6 4.266667 8.533333 17.066667 17.066667 34.133334 21.333333l230.4 72.533334 537.6-337.066667c12.8-8.533333 25.6-12.8 34.133333-4.266667 4.266667 4.266667 4.266667 8.533333-4.266667 17.066667L399.602773 648.533333l-17.066666 238.933334c17.066667 0 29.866667-8.533333 46.933333-21.333334l115.2-106.666666 234.666667 170.666666c55.466667 21.333333 81.066667 8.533333 93.866666-42.666666z" fill="#52B0B0" p-id="5278"></path></svg>