<?xml version="1.0" standalone="no"?><!DOCTYPE svg PUBLIC "-//W3C//DTD SVG 1.1//EN" "http://www.w3.org/Graphics/SVG/1.1/DTD/svg11.dtd"><svg t="1710764089119" class="icon" viewBox="0 0 1025 1024" version="1.1" xmlns="http://www.w3.org/2000/svg" p-id="17438" xmlns:xlink="http://www.w3.org/1999/xlink" width="300.29296875" height="300"><path d="M618.402546 431.937674a341.903172 341.903172 0 0 1 133.912076-27.352254h14.245966a341.903172 341.903172 0 0 0 15.955481-183.488035A264.974958 264.974958 0 0 0 475.942891 3.98887C332.343559 29.631608 210.398095 141.889816 236.040832 284.91931a467.837507 467.837507 0 0 0 38.749027 113.967724L13.233932 780.109071a86.61547 86.61547 0 0 0-12.53645 56.983862l11.396773 64.391764c-10.826934-62.11241 3.419032 22.223706 11.396772 22.223706h86.61547a78.63773 78.63773 0 0 0 46.156929-31.341124l103.710629-161.834168 90.034501 6.838063 121.945465-189.75626a354.439622 354.439622 0 0 1 35.899833-41.59822 332.215915 332.215915 0 0 1 109.409015-74.07902z m-548.754591 387.490261l-12.536449 5.698387v-14.245966l250.728993-363.557039 14.815804 14.245965zM450.300154 150.437396A124.224819 124.224819 0 0 1 626.950126 119.66611a127.643851 127.643851 0 0 1 30.771285 176.080134c-39.888703 56.983862-80.347245 16.52532-136.761269-23.363384S410.981289 207.991096 450.300154 150.437396z" fill="#1296db" p-id="17439"></path><path d="M749.465429 474.67557A274.662215 274.662215 0 1 0 1025.83716 749.337785a274.662215 274.662215 0 0 0-274.662215-274.662215z m158.415136 387.490262c0 40.458542-78.63773 50.145799-152.146911 50.145798s-153.286589-9.687257-153.286589-50.145798v-11.396772c0-30.201447 54.134669-60.972732 100.291597-77.498053 3.419032 0 19.374513-10.257095 10.257095-33.620478a147.018364 147.018364 0 0 1-39.888703-98.582082 82.6266 82.6266 0 1 1 164.683361 0A149.867557 149.867557 0 0 1 797.901712 740.790206c-9.117418 26.782415 5.128548 33.05064 7.407902 33.620478 48.436283 15.955481 103.14079 46.156928 103.14079 77.498053z" fill="#1296db" p-id="17440"></path></svg>