<?xml version="1.0" standalone="no"?><!DOCTYPE svg PUBLIC "-//W3C//DTD SVG 1.1//EN" "http://www.w3.org/Graphics/SVG/1.1/DTD/svg11.dtd"><svg t="1710138675059" class="icon" viewBox="0 0 1024 1024" version="1.1" xmlns="http://www.w3.org/2000/svg" p-id="19723" xmlns:xlink="http://www.w3.org/1999/xlink" width="200" height="200"><path d="M970.7 697l19.5-42.4 27.6 19.5V588l-9.7-11.8 6.7 0.7v-65.2l-31.8 0.1-46.5-11.6-3.9 13.8-27.5-27.7-39.1 23.9-9.3-6.4c3.5-19.4 5.8-39 5.8-58.9 0-183.3-149.1-332.4-332.4-332.4-132.1 0-251 79.6-303.7 199.4l-50.2-42.2 2.6 157.4-12.9 15.5-8.6 45.8 2.5 27.9 2.2 7.6-24.8 16.1-75.2-90.7 32.6 89-51.2-57L12.1 557 0 594.3l18.5 4c22.8 5 49.1 11 61.9 14.4 1.1 4.5 2.7 10.8 5 19.6l2.6 10.2 42.8 9.2 53 46.5 4.2-2.8 8.8 26.1-2 2.5c-0.1 0.1-7.9 9.6-33.1 23.3l-34.2 41.2 2.6 7.9c-6.1 3.9-11 8.1-14.2 11-1.3 1.2-2.3 2.2-2.9 2.6-9.7 5.5-25.8 39.8-20.9 65.1 2.2 11.2 10.4 30.5 41.1 34.5 4.8 0.6 9.4 0.9 13.8 0.9 37.3 0 59.2-21.4 68.5-38 36.8-0.2 44-2.4 46.6-3.7 0.4 4 2.2 12.4 9.8 20.1 8.8 8.7 21.9 13.1 39.2 13.1h1.3c8-0.1 15.7-0.1 22.9-0.1 31.4-0.1 52.8 0.2 63-10.7 2-2.1 2.2-5.4 3.3-8.1 9.4 14.9 23.8 16.9 55.2 19.1l10.7 0.8c7.6 0.6 15 0.9 22 0.9 30 0 53.9-6.6 70.8-25.7 1.7 5.2 5.4 13.5 13.8 19.4 5.7 4 15.7 8.2 30.2 5.3 15.5-2.9 27.6-10 36.1-16.7 7 12.3 18.9 15.2 41 15.9 21.3 0.9 33.7-9.1 41.7-17.9l7.2 8.1c7.7 8.7 17.2 11.9 26.6 11.9 8.1 0 16.1-2.5 22.4-5.9 10-5.4 14.4-12.6 14.8-19.8 0.5 1.3 0.3 2.7 1 4 0.4 2 4.7 19.9 36.4 20l69.5 0.1c12.6-1.5 30.7-11.2 29.3-32.1l-0.7-11h-1c1.3-3.6 1.7-7.5 0.7-11.4-0.4-1.5-1.2-3.5-2.7-5.4l5.4 0.1 3.2-0.4c5.4-1.5 12.1-6.1 13.1-14 0.6-4.3-1-7.9-3-11l8.8-14.4 0.1-7.3 69.7-29.1-53.2-69.6zM44.2 569l10-24.1 30 33.4c-9.7-2.6-22.6-5.5-40-9.3z m886.6-48.4l-4 14.1-7-5 11-9.1zM530 146.9c164.4 0 298.1 133.7 298.1 298.1 0 23.4-3.5 46.3-8.8 68.9l-2.3-0.1-8.4-5.2-6-10.3 15.8-47-62.9-12.6 0.4 11.7-14.8-9.9-10.3-32.9-9.6 1.8-28.6-13.1-14.5-18H653.3l-98-44.8-20.4-30.1-21.2 6.8-50.9-31.3-83-9.5-44.6 8-63.2 48.7v10.5l-0.7 1.6-17.1-4.6c45.3-112 154.5-186.7 275.8-186.7z m221.4 469.5l-18 25.8 4 7.2-8.2 0.4-45.2 29.7-28.9-10.2-21.1 16.7-28.6 0.8-20 21.3-42.9-10.4-7.5 12.1-24.5-18.2-23 7.1-50.2-29.6-10.8 14.2-6.8-65.5h-13v-14.6l33.1-48.9-5.7-22.1 13.1-14.9H487.3L468.4 496l6.6-21.4 20.2-21.8h33.5l23.1-19.3 28 7.2 14.6-18.9 11.1 12.9 27.8-10.2 12.9-11.5 24.6 11.2 20.7 25.6 15.5-2.9 4.8 15.5 20.4 13.6 4.2 13.8 5.6 8.4-4.4 5.7 25.9 37 1.8 15.8-24.4 35.8 10.5 23.9z m-348.7-68.5l-2.9 4.3-32.5-53.8-48.2-35.4 4.3-17.4 2.5 3.6 12.7 3.7 1.8 14.5 31.5 19.2 28.6 32-4 4.6 6.2 24.7z m-10.3-116.3c-4.1-4.6-9.9-11.4-11.2-13-3.9-7.4-10.5-10.2-23.3-11.4l-2.1-10.3-31.2-10.4 0.3-1.6-18.7-22.5v-19.9l39.3-32 35.7-6.4 67 6.2 60.9 37.6 11.8-3.8 11.3 16.8 58.4 26.7h-13l-9.2 11.9-9.4-11.9h-33.8l-4.9 27.6-4 3.3h-36l-33 35.7-4.7 12.6-27.6-31.1-22.6-4.1zM226.3 356.8l-13.7 45.3-0.9-57.6 14.6 12.3z m-60.6 213l1.6 3.8-2.5-0.1-8.3-9.9 9.2 6.2z m94.1 241c-54.2-1.6-56.1-0.6-59 0.7-7 3.3-11.7 14.8-9.5 23.3 2 7.8 9.6 12.8 17.9 12.1 7-0.4 27.5-1.9 41-3-0.1 1.8-0.3 3.4-0.5 4.7-8.1 0.9-24.9 1.6-41.3 1.3l-7.9 0.1-2.8 7.3c-0.6 1.5-14.6 36.1-61.3 29.8-16.8-2.2-19.8-10.2-20.7-12.8-5.7-15.2 6.4-41 8.7-44.4 2.4-1.3 4.5-3.2 7.1-5.6 3.3-3 7.5-6.8 12.8-9.9h9.3v-4.1c3.4-1 7.1-1.6 11.2-1.6h0.1l95.8 0.6c-0.3 0.6-0.6 1.1-0.9 1.5z m122.1 65.1c-3.7 3.2-21.7 3.5-38.6 3.5-6 0-11.5-0.1-17.6 0-4.6 0-8.5 0.4-14.5 0.1-24.8 0-26.2-11.5-26.3-13-1.7-45.3 27.8-50.7 31.5-51.2 17-1.8 23.5 2.9 25.6 5 1.1 1.1 1.6 2.1 1.8 2.8-8.5 6.5-10.3 20.1-6.4 30.1 4 10 15.2 19.7 34.1 13.9 6.6-2.1 8.7 0.5 9.3 1.4 2 2.7 1.7 6.6 1.1 7.4z m173.8-34c-11.3 32.8-33 42.6-86.4 38.6l-10.7-0.8c-38.1-2.7-38.1-2.7-44.4-27-5.7-22.2 10.1-31.4 15.1-33.7 14.2-3.1 24.7-2.4 28.9 1.8 4.4 4.4 2.5 13.2 2.3 14.2-2.3 14.8-2.6 24.2 2.9 30.9 5.3 6.6 13.1 7 19.3 7.3 18.2 0.9 24.1-12.9 27.5-19.6 2-3.1 2.3-6.4 2.7-9.9 0.8-8.1 1.8-17.3 16.1-22.4 14.6-5.2 25.5-5 28.5-2 2.1 2.3 2.8 9.4-1.8 22.6z m223.8-3.2c-3.5 7.1-8.4 25.3-7.3 37.4-2.5 2.1-8 5.1-13.8 5.5-5.6 0.4-9-2.2-10.8-4.1l-28-31.7-7.5 15.5c-0.1 0.2-9 18.3-28.7 18.3H682.3c-22.4-0.7-22.4-0.7-25.4-16.2l-4.9-25.3-15.5 20.6c-0.2 0.2-13.6 17.7-36.3 22-10.4 2.2-15.3-2.4-17.3-6.9 15.9-23.2 34.9-48.7 39.3-51.8 11-3.7 44.9-6.2 52.2 3 1.8 2.3 3.1 4.1 4.1 5.6l-16.5 15.1h29.4l7.9-0.6 2.2-4.5c11.1-9.3 37.2-26.1 56.6-20 16.4 5.2 20.4 11.1 21.4 13.4 0.9 2 0.5 3.7 0 4.7z m82.2 41.4l-30.1-0.1c-11.8 0-14.6-3.2-14.8-4-10.9-23.7 7.3-38.7 24.6-47.1 2.5-1.2 5.2-1.8 7.9-1.8h0.1l22.3 0.1c-0.4 0.4-0.7 0.9-0.9 1.3-5.2 8.2-2.1 17.7-1.5 19.5l2.8 7.3c-8.3 0.4-11.9 4.5-13.6 8.2-2.6 5.1-1.4 11.4 3.2 16.6z m14.1-24.8c-0.2 0-0.4-0.1-0.7-0.1h4.7c0.1 0 4.5 0 10.8 0.5-5.4 0-10.8-0.1-14.8-0.4z m44.3-82.2l-0.2 20.4-6.6 10.8-64-0.2c-5.7-1-12.5 1.4-18.1 4.2-13.3 6.5-22.4 14.8-29.4 23.8-0.4-2.4-0.4-4.8-1.4-7.1-4.9-11.4-16.8-20.2-35.4-26.1-25.6-8.3-53.3 6.4-68.8 17.2-1.2-1.7-2.6-3.4-4-5.2-18.9-23.7-70.4-12.9-77.5-10.4-2.6 0.9-10.1 3.9-35.8 39.3 3.5-15.7 2.6-28.6-5.5-36.6-10.6-10.4-29.2-11.6-52.2-3.3-27.8 10-30.2 32.9-30.4 41.7l-1.9 3.4c-2.5 5-3.4 5.5-4.6 5.5-0.5 0-1.5-0.1-2.6-0.2 0.1-2 0.3-5.3 1.1-10.8 0.5-2.1 4.8-21.3-8.3-34.7-10.4-10.6-27.7-13.3-51.4-8l-1.7 0.5c-12.6 5-32.1 22.2-29.9 50.7-6.6-4.2-15.4-6.4-26.6-3-3.1 1-5.2 0.9-5.7 0.3-0.9-1.1-1.2-4.2-2.3-3.7 8.3-4.1 12.1-14.3 9-24.9-4-14-19.5-27.7-52-24.4-7.8 0.8-18.2 4.7-27.7 12.4-0.1-2.3-0.4-4.6-1.5-6.7-3.8-8.1-12.8-11-18.2-12l-93.1-0.2 8-10.2c18-10.1 28.6-18.6 34.5-24.2l65.7-1.3 8.1-42.4-23.7-9.1-21.1-27.1-25.1 10.9-13.6-40.4-19.5 13-40-35-30.9-6.6c-0.2-0.8-0.4-1.5-0.6-2.3h42.4l-1.4-3.9 26.5 1.4 28.2-18.9-17.5-42.7-2.1-1.5 12.7-8.3-10.5-26.5-1.8-20.7 6.1-32.4 15.3-18.4-0.4-29h63.2l9-19.9 1 1.2 1.9 2.8-6.9 33.3 2.3 5.1 5.1 11.2-8.1 33.6 59.5 41.6 8 13.2h-94.8l104.3 45 15.1 25.2v49.4h15.7l2.5 31.1 14 41.4h33.5l8-10.5 37.3 21.8 20.8-6.4 40.5 30.1 14.1-22.7 38.2 9.2 23.9-25.5 25.7-0.7 15.2-12 27.1 9.5 51.5-33.8 53.7-2.6-20.3-36.6 16.9-24.1-10.6-24.1 20.9-30.7-2.6-22.8 8.4 5.2 23.6 0.9 41.2 22 25.9-13.7 5.4 2.7 16.6 20.5 32.1-18.2 31.9 38.5v7.6l-12.6-8.9-21.5 30.1-18 5.1-15.6 37.3 27.2 3.7-12 26.1 38.8 51-49.6 20.7z m-693.7-55.9l7.8-3.4 2.5 3.2-10.3 0.2z" p-id="19724" fill="#13227a"></path><path d="M689.3 495l-33.1-6.6-21-26.6h-86.4L508.3 495.5l2.1 23.4-38.9 40.7 22.2 25.7v36.5l43.8 40.8 17.2-7.3 12.6-0.5 20.3 26.3 50-9.7 13.5-21.2h18.5l1.5-14.5 26.5-8.1L714.7 517h-18.8l-6.6-22z m-22.5 106.1l-27.7 8.5-0.6 6.3h-6.5l-15.6 24.6-14.7 2.8-18.2-23.7-33.4 1.5-5.6 1.2-16.6-15.5v-34.3l-10.1-11.8 1.3-1.4 31.5 24.9-6.6-73.9 17.2-14.3h57.4l18.5 23.4 25.3 5.1 8 26.7h4.1l-7.7 49.9z" p-id="19725" fill="#13227a"></path><path d="M565.3 596l23.6-2c3.1-0.3 7.1-0.4 8.4-0.2 13.7 2.3 27.3-10.5 27.3-10.6 3.6-3.5 4.6-5.6 10-25.7L640.3 536h-60.8L565.3 596z" p-id="19726" fill="#13227a"></path></svg>