<?xml version="1.0" standalone="no"?><!DOCTYPE svg PUBLIC "-//W3C//DTD SVG 1.1//EN" "http://www.w3.org/Graphics/SVG/1.1/DTD/svg11.dtd"><svg t="1710138473878" class="icon" viewBox="0 0 1024 1024" version="1.1" xmlns="http://www.w3.org/2000/svg" p-id="14259" xmlns:xlink="http://www.w3.org/1999/xlink" width="200" height="200"><path d="M388.864 409.344c245.4528 0 416.6144-70.528 416.6144-157.44V157.44C805.4784 70.528 634.3168 0 388.864 0 143.4368 0 0 70.528 0 157.44v94.464c0 86.9376 143.4368 157.44 388.864 157.44zM19.712 691.6608c-13.312 15.0016-19.712 30.9504-19.712 47.488v126.6176C0 953.1648 143.872 1024 390.2208 1024c12.288 0 24.4224-0.2048 36.4032-0.6144V801.792c-12.4416 0.4352-25.0112 0.6656-37.7344 0.6656-199.7824 0-312.3968-46.592-369.2032-110.7968z m0-307.6352c-13.312 15.0528-19.712 31.0272-19.712 47.616v126.8992c0 87.6032 143.872 158.6944 390.2208 158.6944 12.288 0 24.4224-0.2304 36.4032-0.5888v-221.8496c-12.2112 0.2048-24.7808 0.3072-37.7344 0.3072C189.1072 495.104 76.4928 448.4096 19.6864 384zM703.5648 418.4576c60.3392 0 109.2352 52.8896 109.2352 118.0672 0 33.7408-13.0816 64.2048-34.0736 85.7088l121.5488 176.9472c6.144-1.2032 12.4416-1.8432 18.8928-1.8432 57.9072 0 104.832 50.7392 104.832 113.3312C1024 973.2608 977.0752 1024 919.168 1024c-57.9072 0-104.832-50.7392-104.832-113.3312 0-44.3392 23.552-82.7392 57.8816-101.376l-116.224-169.1392a102.4 102.4 0 0 1-93.4912 5.8368l-71.0144 159.2576c38.784 16.64 66.2528 57.5744 66.2528 105.4208 0 62.592-46.9504 113.3312-104.832 113.3312-57.9072 0-104.832-50.7392-104.832-113.3312 0-62.5664 46.9248-113.3312 104.832-113.3312 3.584 0 7.168 0.2048 10.7008 0.5888l74.4448-166.912c-26.5472-21.5296-43.7248-55.8592-43.7248-94.4896 0-65.2032 48.896-118.0672 109.2352-118.0672z" fill="#69ACFF" p-id="14260"></path></svg>