<?xml version="1.0" standalone="no"?><!DOCTYPE svg PUBLIC "-//W3C//DTD SVG 1.1//EN" "http://www.w3.org/Graphics/SVG/1.1/DTD/svg11.dtd"><svg t="1710141660186" class="icon" viewBox="0 0 1024 1024" version="1.1" xmlns="http://www.w3.org/2000/svg" p-id="7042" xmlns:xlink="http://www.w3.org/1999/xlink" width="200" height="200"><path d="M876.415772 954.175404H185.408204a46.719971 46.719971 0 0 1-46.911971-46.591971 46.719971 46.719971 0 0 1 46.911971-46.463971h491.903693V0H138.496233C99.712258 0 68.288277 31.29598 68.288277 69.823956v837.759477A116.735927 116.735927 0 0 0 185.408204 1023.99936h691.007568a35.007978 35.007978 0 0 0 24.831985-59.647963 35.007978 35.007978 0 0 0-24.831985-10.239993z" fill="#C6000B" p-id="7043"></path><path d="M834.111799 0H730.879863v843.327473h103.231936c42.751973 0 77.439952-30.719981 77.439951-68.479957V68.351957C911.55175 30.719981 876.863772 0 834.111799 0z" fill="#152C51" p-id="7044"></path></svg>