<?xml version="1.0" standalone="no"?><!DOCTYPE svg PUBLIC "-//W3C//DTD SVG 1.1//EN" "http://www.w3.org/Graphics/SVG/1.1/DTD/svg11.dtd"><svg t="1709947685415" class="icon" viewBox="0 0 1024 1024" version="1.1" xmlns="http://www.w3.org/2000/svg" p-id="17331" data-darkreader-inline-fill="" xmlns:xlink="http://www.w3.org/1999/xlink" width="200" height="200"><path d="M340 865.142857q0-57.142857-94.285714-57.142857-90.285714 0-90.285714 59.428571 0 57.714286 98.285714 57.714286 86.285714 0 86.285714-60zm-33.714286-431.428571q0-34.857143-17.142857-58.285714t-50.857143-23.428571q-70.857143 0-70.857143 82.857143 0 77.142857 70.857143 77.142857 68 0 68-78.285714zm153.714286-185.142857l0 115.428571q-20.571429 6.857143-45.142857 12.571429 9.142857 24.571429 9.142857 48 0 72.571429-41.714286 123.714286t-112.571429 64.285714q-22.857143 4.571429-34 15.428571t-11.142857 33.142857q0 17.714286 12.857143 29.428571t33.142857 18.285714 44.857143 12.571429 49.142857 14.571429 44.857143 21.428571 33.142857 36.571429 12.857143 56.285714q0 173.714286-207.428571 173.714286-39.428571 0-74.285714-7.142857t-66.285714-23.428571-50-46.857143-18.571429-72.857143q0-94.285714 104-128.571429l0-2.285714q-38.285714-23.428571-38.285714-72 0-62.285714 36-78.285714l0-2.285714q-41.142857-13.714286-68.285714-62t-27.142857-94.571429q0-79.428571 54.285714-132.285714t134.285714-52.857143q54.857143 0 101.714286 26.857143 56 0 124.571429-26.857143zm181.714286 503.428571l-126.857143 0q2.285714-25.714286 2.285714-76.571429l0-348q0-53.714286-2.285714-73.142857l126.857143 0q-2.285714 18.857143-2.285714 70.857143l0 350.285714q0 50.857143 2.285714 76.571429zm343.428571-126.857143l0 112q-40.571429 22.285714-99.428571 22.285714-35.428571 0-61.142857-11.428571t-40-28.571429-22.571429-44.571429-10.571429-52.571429-2.285714-58.857143l0-200.571429 1.142857 0 0-2.285714q-4 0-10.857143-0.571429t-10.285714-0.571429q-12 0-33.714286 3.428571l0-108.571429 54.857143 0 0-43.428571q0-30.857143-3.428571-50.857143l129.714286 0q-3.428571 23.428571-3.428571 94.285714l97.714286 0 0 108.571429q-8.571429 0-24.857143-1.142857t-24.285714-1.142857l-48.571429 0 0 208.571429q0 74.857143 49.714286 74.857143 34.857143 0 62.285714-18.857143zm-329.142857-541.142857q0 33.142857-22.285714 58t-54.857143 24.857143q-33.142857 0-56-24.857143t-22.857143-58q0-33.714286 22.571429-58.857143t56.285714-25.142857q33.142857 0 55.142857 25.428571t22 58.571429z" p-id="17332"></path></svg>