<?xml version="1.0" standalone="no"?><!DOCTYPE svg PUBLIC "-//W3C//DTD SVG 1.1//EN" "http://www.w3.org/Graphics/SVG/1.1/DTD/svg11.dtd"><svg t="1709798837530" class="icon" viewBox="0 0 1024 1024" version="1.1" xmlns="http://www.w3.org/2000/svg" p-id="14049" data-darkreader-inline-fill="" xmlns:xlink="http://www.w3.org/1999/xlink" width="200" height="200"><path d="M608 505.6C608 473.6 595.2 448 576 435.2L576 320c0-38.4-25.6-64-64-64S448 281.6 448 320l0 115.2C428.8 448 416 473.6 416 505.6S428.8 556.8 448 576l0 128c0 38.4 25.6 64 64 64s64-25.6 64-64L576 576C595.2 556.8 608 531.2 608 505.6zM320 384m-64 0a1 1 0 1 0 128 0 1 1 0 1 0-128 0ZM320 640m-64 0a1 1 0 1 0 128 0 1 1 0 1 0-128 0ZM704 384m-64 0a1 1 0 1 0 128 0 1 1 0 1 0-128 0ZM704 640m-64 0a1 1 0 1 0 128 0 1 1 0 1 0-128 0Z" fill="#1296db" p-id="14050" data-darkreader-inline-fill="" style="--darkreader-inline-fill: #1190d2;"></path></svg>