<?xml version="1.0" standalone="no"?><!DOCTYPE svg PUBLIC "-//W3C//DTD SVG 1.1//EN" "http://www.w3.org/Graphics/SVG/1.1/DTD/svg11.dtd"><svg t="1709798971310" class="icon" viewBox="0 0 1024 1024" version="1.1" xmlns="http://www.w3.org/2000/svg" p-id="17527" data-darkreader-inline-fill="" xmlns:xlink="http://www.w3.org/1999/xlink" width="200" height="200"><path d="M686.976 765.088l-115.04 111.2c-19.872 19.904-47.392 28.224-77.76 28.224s-57.888-8.32-77.792-28.224l-184.768-186.112c-19.904-19.904-29.952-49.056-29.952-79.456s10.016-57.888 29.952-77.792l184.224-186.816c19.936-19.936 48-27.52 78.368-27.52s57.888 8.32 77.76 28.224l115.04 111.168c21.92 21.952 58.24 21.184 81.056-1.632 22.816-22.848 23.584-59.168 1.664-81.088l-111.296-112.448a214.816 214.816 0 0 0-102.848-56.736l-1.44-0.288 105.216-106.752c22.016-21.92 21.248-58.272-1.568-81.088S598.624-5.6 576.672 16.32L145.856 447.168c-41.856 41.888-63.712 99.68-63.712 163.584s21.888 123.488 63.712 165.28l185.408 186.016c41.856 41.76 99.68 61.92 163.552 61.92s121.696-21.824 163.584-63.712l111.296-112.48c21.92-21.92 21.152-58.24-1.664-81.056s-59.104-23.584-80.992-1.664z m200.864-209.856H455.104c-29.952 0-54.176 25.76-54.176 57.408s24.224 57.408 54.176 57.408h432.736c29.888 0 54.176-25.76 54.176-57.408s-24.256-57.408-54.176-57.408z" fill="#1296db" p-id="17528" data-darkreader-inline-fill="" style="--darkreader-inline-fill: #1190d2;"></path></svg>