<?xml version="1.0" standalone="no"?><!DOCTYPE svg PUBLIC "-//W3C//DTD SVG 1.1//EN" "http://www.w3.org/Graphics/SVG/1.1/DTD/svg11.dtd"><svg t="1709948478915" class="icon" viewBox="0 0 1024 1024" version="1.1" xmlns="http://www.w3.org/2000/svg" p-id="39346" data-darkreader-inline-fill="" xmlns:xlink="http://www.w3.org/1999/xlink" width="200" height="200"><path d="M303.6 387.2c-27.9 0-50.7 22.7-50.7 50.7 0 28 22.7 50.7 50.7 50.7 28 0 50.7-22.7 50.7-50.7-0.1-28-22.7-50.7-50.7-50.7z m0 76c-14 0-25.5-11.3-25.5-25.5s11.3-25.5 25.5-25.5 25.5 11.3 25.5 25.5-11.4 25.5-25.5 25.5z" fill="#3B4552" p-id="39347" data-darkreader-inline-fill="" style="--darkreader-inline-fill: #e0dad0;"></path><path d="M874.2 472.8c-28.2-6.8-56.1-8.4-78.4-4.8-7.7 1.3-14.5 3.2-20.4 5.5-2.3-42.2-17.1-88.2-58.4-130.8-42-43.4-107.5-78.1-179.7-95.5-71.3-17.1-138.8-14.1-186.8 8.3-7.9-6.2-22.4-17.1-37.8-27.4-38.2-25.5-58.4-30.9-69.6-18.9-10.3 11.1-12.9 41.1-10.2 119 0.3 5.7 0.4 11.5 0.4 14.9-1 1.3-2.1 2.8-3.3 4.3-8.2 10.5-23.3 29.9-35.3 49.5-7.8 12.9-13.5 25.7-17.6 35.2-1.4 3.2-3 6.8-4 8.9-12 6.6-52.8 28.4-53.3 28.6l-6.7 3.5v99.4l9.5 2.4c0.5 0.1 52.1 13.6 70.2 19.4 2.5 2.9 7.4 11.2 11.6 18.1 10 16.6 23.7 39.6 41.5 57.9 17.5 18 39.7 34.8 56 47 5.7 4.3 12 8.9 15.4 12-1 13.2-4.8 49.5-7.3 72.5l-1.5 14H398l7.3-58c17.5 3.3 49.7 8.3 84.2 8.3 32.1 0 62.3-4.3 80.4-7.6l-7.2 57.3h94l8.2-85.3c13.7-15 69.6-77.6 84.4-121.9 1-2.8 2-6 3.4-9.7 7.6-21.4 19.7-55.5 22.6-95.2 2.9-3.9 10.6-8.3 24.8-10.7 6.7-1.1 14-1.6 21.7-1.5-2.5 3.5-4.5 7.4-6 11.7-9.2 24.7 1.3 52.8 23.3 62.5 5.2 2.3 10.7 3.5 16.3 3.5 5.4 0 10.8-1.1 16.1-3.3 11.8-5 21.3-15.3 26.1-28.2 3.7-9.7 4.2-20 2.1-29.5 28.5 13.2 44.1 31.8 49.3 47.3l23.8-8.2c-9.3-27-39.9-60.4-98.6-74.5zM728.7 590.3c-1.3 3.7-2.5 7.1-3.5 10.1-14.9 44.2-81.2 115.1-81.8 115.8l-2.9 3.2-6.9 71.1h-42.9l8.1-64.4-17.6 4.2c-0.4 0.1-44.4 10.5-92.1 10.5-47.5 0-91.6-10.3-92.1-10.5l-13.7-3.3-7.9 63.4h-39.1c2.3-21.7 6.2-58.5 6.2-65.5 0-8.3-5.4-12.5-25.6-27.7-15.5-11.7-36.8-27.9-53.1-44.5-15.8-16.1-28.5-37.6-37.8-53.2-10.3-17.1-15.4-25.8-23.6-28.5-13-4.3-47.4-13.5-64.2-17.9v-64.9c13.6-7.3 43.5-23.3 49.4-26.6 5.2-2.9 7.3-7.8 12.5-19.4 3.9-8.8 9.1-20.8 16-32.1 11.2-18.4 25.8-37.1 33.7-47.1 5.8-7.4 6.8-8.7 7.7-11.1 1.3-3.3 1.1-5.3 0.5-24.3-0.5-15.6-1.4-39.2-0.9-60.2 0.5-23.6 2.4-34 3.7-38.4 4.9 1.3 17.1 6 43.5 24.1 19.5 13.4 36.6 27.2 36.8 27.4l6.4 5.3 7.3-3.9c43-22.8 107.4-26.3 176.5-9.7 66.8 16 129.4 49.2 167.5 88.6 43.2 44.6 53.7 93.3 51.5 136.2 0 1.5-0.3 3.8-0.3 3.8-2.4 36-13.7 67.9-21.3 89.5z m144.9-61.5c-2.4 6.4-6.8 11.5-12.2 13.7-2.9 1.3-7.4 2.3-12.4 0-10-4.4-14.4-18.5-9.8-30.8 2.4-6.4 6.8-11.5 12.2-13.7 1.6-0.8 3.8-1.3 6.3-1.3 1.9 0 3.9 0.4 6 1.3 9.9 4.3 14.5 18.4 9.9 30.8z" fill="#3B4552" p-id="39348" data-darkreader-inline-fill="" style="--darkreader-inline-fill: #38424f;"></path><path d="M448 547.3c0.4 13.7 3.3 23.8 8.7 30.5 5.4 6.7 15.4 10.7 30 12v-75.4c-19.8-3.3-34-9.3-42.7-18-8.7-8.7-13-20.2-13-34.3 0-15 4.7-27 13.9-36s23.2-14.2 41.8-15.8v-23.7h16.8v23.7c18.5 1.9 31.9 7.2 40.1 15.9 8.2 8.7 12.4 20.4 12.4 34.9h-20.4c-1.5-10.7-4.4-18.5-8.9-23.8-4.5-5.2-12.2-8.2-23.2-9.1v68.1c6.2 1.6 11.2 3 15.1 4.2 3.9 1.1 7.1 2.1 9.6 3.2 2.4 1 4.4 2 6 3 1.6 1 3.5 2.1 5.8 3.5 7.6 5 13 10.8 16.5 17.6 3.4 6.8 5.2 15.3 5.2 25.5 0 16.6-4.8 29.6-14.2 38.8-9.6 9.2-24.2 14.5-44 16v27h-16.8v-27c-21.6-1.6-37.1-7.6-46.3-17.8-9.2-10.2-13.7-24.6-13.6-43.1H448v0.1z m11.2-65.6c5.2 5.3 14.2 9.2 27.5 11.7v-65c-12.1 0.5-20.9 3.7-26.6 9.5s-8.6 13.5-8.6 22.8c0 8.7 2.6 15.6 7.7 21z m73.4 49.6c-5.3-6.2-15-10.8-29.1-13.7v72.6c11.7-0.4 20.8-3.7 27.4-10.1 6.4-6.4 9.7-14.6 9.7-24.5-0.1-10.1-2.7-18.1-8-24.3z" fill="#FF960B" p-id="39349" data-darkreader-inline-fill="" style="--darkreader-inline-fill: #ec8600;"></path></svg>